<svg xmlns="http://www.w3.org/2000/svg" viewBox="0 0 3001.91 1247.02"><defs><style>.a{fill:#39b54a;}.b{fill:#fff5eb;}.c{fill:#fd0;}.d{fill:#76b82a;}.e{fill:#009245;}.f{fill:#52ae32;}</style></defs><path class="a" d="M201.81,394.66h55.88v222.7H201.81V593.82Q185.46,609.38,169,616.23a91.88,91.88,0,0,1-35.68,6.86q-43.14,0-74.62-33.47t-31.49-83.2q0-51.59,30.47-84.54t74-32.95a94,94,0,0,1,37.61,7.57,102.65,102.65,0,0,1,32.51,22.72Zm-58.74,45.85q-25.9,0-43,18.32t-17.13,47q0,28.86,17.44,47.49t42.94,18.63q26.32,0,43.66-18.32t17.34-48q0-29.07-17.34-47.08T143.07,440.51Z"/><path class="a" d="M450.51,425.77l-34.59,34.59q-21.09-20.88-38.28-20.88-9.42,0-14.74,4t-5.32,9.93a12.21,12.21,0,0,0,3.38,8.29q3.38,3.8,16.68,10.34l20.47,10.23q32.34,16,44.41,32.55T454.6,553.7q0,29.68-21.8,49.53t-58.44,19.86q-48.71,0-77.78-38.07L331,547.56a79.35,79.35,0,0,0,23,18.52q13.2,7.06,23.43,7.06,11.06,0,17.81-5.32T402,555.54q0-12.88-24.36-25.18L358.81,521q-54-27.23-54-68.16,0-26.4,20.37-45.14t52.09-18.72a90.35,90.35,0,0,1,73.28,36.84Z"/><path class="a" d="M554.08,394.66v24.56a105,105,0,0,1,32.75-22.72,94.23,94.23,0,0,1,37.66-7.57q43.6,0,74.1,32.95t30.5,84.54q0,49.74-31.53,83.2t-74.71,33.47A92.87,92.87,0,0,1,587,616.23q-16.57-6.86-32.95-22.41v105H498.61V394.66Zm58.74,45.85q-26.4,0-43.8,18t-17.4,47.08q0,29.68,17.4,48t43.8,18.32q25.59,0,43.09-18.63t17.5-47.49q0-28.65-17.19-47T612.82,440.51Z"/><path class="a" d="M998.46,522.18H819q3.88,23.75,20.77,37.76t43.09,14q31.32,0,53.83-21.9l47.08,22.11q-17.61,25-42.17,36.94t-58.33,12q-52.41,0-85.36-33.06t-33-82.8q0-51,32.85-84.63t82.39-33.67q52.61,0,85.56,33.67t32.95,88.93Zm-55.88-44a56,56,0,0,0-21.84-30.29q-16.31-11.67-37.83-11.67-23.37,0-41,13.1-11.08,8.19-20.51,28.86Z"/><path class="a" d="M1261.69,439.69l-46.52,25.58q-13.12-13.71-25.93-19t-30-5.32q-31.35,0-50.72,18.7t-19.37,47.92q0,28.41,18.65,46.39t49,18q37.52,0,58.41-25.59l44.06,30.17q-35.82,46.59-101.12,46.59-58.74,0-92-34.8t-33.27-81.46A114.54,114.54,0,0,1,1049,447.26q16.17-27.21,45.14-42.78t64.78-15.55q33.16,0,59.57,13.2A113,113,0,0,1,1261.69,439.69Z"/><path class="a" d="M500.49,984.62a17.89,17.89,0,0,1,16.3,10.48,17.88,17.88,0,0,1,32.57,0,18,18,0,0,1,4.72-6.24V907.35q0-35.82,2.46-45.85,4.71-19.44,16.88-30.7a41.52,41.52,0,0,1,29.17-11.26q13.1,0,22,6.76t12.58,20.46q3.69,13.72,3.69,52.41v88.54a17.91,17.91,0,0,1,6.26,7.39,17.92,17.92,0,0,1,32.6,0,17.93,17.93,0,0,1,16.2-10.48v-135q0-38.48-19.44-58.34-22.72-22.92-55.88-22.92A84.91,84.91,0,0,0,587,775.43q-16.59,7.07-33,21.19V688.13H498.61V984.76A16.63,16.63,0,0,1,500.49,984.62Z"/><path class="a" d="M1054.55,984.62a17.88,17.88,0,0,1,16.27,10.48,17.87,17.87,0,0,1,29.27-4.87V906.74l-.21-10.85q0-46.67,8.91-62.64t21.8-16q6.35,0,16.17,4.91l17.4-48.1q-11.88-5.73-22.72-5.73a49.88,49.88,0,0,0-28.25,8.59q-12.9,8.61-20.68,25.18v-28h-47.89V987.64A17.74,17.74,0,0,1,1054.55,984.62Z"/><path class="a" d="M976.81,826.93a114.07,114.07,0,0,0-43.27-42.79,118,118,0,0,0-59.29-15.76q-43.56,0-77.14,30.28-38.26,34.79-38.29,87,0,48.71,33.86,82.8a120.4,120.4,0,0,0,24.23,18.92,17.64,17.64,0,0,1,9.51-2.75,17.89,17.89,0,0,1,16.3,10.51,17.88,17.88,0,0,1,32.57,0,17.92,17.92,0,0,1,32.6,0,17.9,17.9,0,0,1,25.71-7.8,2.82,2.82,0,0,1,.42-.22,113.22,113.22,0,0,0,42.69-42.89,116.83,116.83,0,0,0,15.66-59A114.73,114.73,0,0,0,976.81,826.93Zm-58.15,105.4q-17.42,18.2-43.67,18.21t-43.37-18q-17.11-18-17.14-47,0-28.29,17.34-46.38T875.19,821q26.64,0,43.76,17.92t17.14,46.58Q936.09,914.09,918.66,932.33Z"/><path class="a" d="M1218.25,984.67a17.87,17.87,0,0,1,15.55,10.46,17.89,17.89,0,0,1,32.6,0,17.78,17.78,0,0,1,7.73-8.3V822.2h33.16V774.1h-33.16V692h-55.88V774.1h-28.66v48.1h28.66Z"/><path class="a" d="M1538.36,985.35a17.91,17.91,0,0,1,21.36,9.75,17.92,17.92,0,0,1,32.6,0,17.88,17.88,0,0,1,32.57,0,17.86,17.86,0,0,1,32.28-.59l.79-.28a17.84,17.84,0,0,1,15.83-9.64,17.31,17.31,0,0,1,3.47.37,116.39,116.39,0,0,0,32.14-29l-44.06-30.17q-20.91,25.59-58.41,25.59-30.33,0-49-18T1539.3,887q0-29.22,19.37-47.92t50.72-18.7q17.22,0,30,5.32t25.93,19l46.51-25.59a113.1,113.1,0,0,0-43.18-37.56q-26.42-13.2-59.57-13.2-35.82,0-64.78,15.56t-45.14,42.77A114.56,114.56,0,0,0,1483,886.27q0,46.66,33.27,81.47A105,105,0,0,0,1538.36,985.35Z"/><path class="a" d="M1820.08,986.16c.9.65,1.87,1.21,2.8,1.82a17.81,17.81,0,0,1,26.66,7.15,17.89,17.89,0,0,1,32.6,0,17.89,17.89,0,0,1,32.6,0,17.89,17.89,0,0,1,16.3-10.51,17.65,17.65,0,0,1,7.3,1.58q19.42-13.8,29.84-37.91,9.21-21.49,9.21-79.83V774.1h-55.88V883.2q0,31.51-3.49,41.14-4.73,12.9-14.47,19.55t-23.7,6.65q-13.95,0-23.49-6.75a38,38,0,0,1-13.85-18.94q-4.3-12.17-4.31-43.5V774.1h-56.49v92.72q0,53.43,6.55,73.69Q1797.47,969.79,1820.08,986.16Z"/><path class="a" d="M2061.38,984.62a17.9,17.9,0,0,1,16.31,10.51,17.87,17.87,0,0,1,16.3-10.51,17.66,17.66,0,0,1,8.92,2.43V688.13H2047V991.92A17.78,17.78,0,0,1,2061.38,984.62Z"/><path class="a" d="M2269.16,774.11V822.2H2236V988.93a17.91,17.91,0,0,0-27.94,6.18,17.92,17.92,0,0,0-28-6.18V822.2h-28.65V774.11h28.43c-.1-4.69,0-9.38.13-14.13,0-.78.06-1.59.09-2.4.2-4,.55-8.28.62-11.25a232.93,232.93,0,0,0-.62-38.49c-.29-3.27-.64-6.5-1-9.7q-1.65-12-3.92-24c-1.61-8-3.52-15.85-5.46-23.74s-4.53-15.62-7.05-23.22l-2.23-6.31c-.78-2.3-1.56-4.56-2.27-6.89-1.42-4.62-2.68-9.28-3.78-14a168.67,168.67,0,0,1-4.17-28.88,181.07,181.07,0,0,1,.67-28.72,165,165,0,0,1,5.92-28A140.59,140.59,0,0,1,2167.54,488c2-4.24,4.76-8.12,7.21-12.07,2.78-3.78,5.34-7.66,8.41-11.12a141,141,0,0,1,19.34-19.44,4.53,4.53,0,0,1,6.5,6.24c-5.27,6.69-10.41,13.49-14.42,20.86-2.23,3.56-3.88,7.41-5.76,11.09a117.79,117.79,0,0,0-4.46,11.62,121,121,0,0,0-5.43,24,138.16,138.16,0,0,0-1,24.29,148.22,148.22,0,0,0,3.33,24,136.12,136.12,0,0,0,7.08,22.51c1.52,3.65,3.14,7.24,4.92,10.8.87,1.78,1.81,3.53,2.74,5.27l3.11,5.69c4.46,8.45,8.54,17,12.45,25.62,7.76,17.34,14.94,35.25,19.76,54.11,0,.19.1.42.13.61,1.07,4.53,2.17,9.06,2.95,13.65.61,3.43,1.13,6.89,1.58,10.38.19,1.36.36,2.75.55,4.11.42,4.89.74,9.74.94,14.69s-.13,10-.26,15c-.13,5.66-.32,8.38-.36,12.29,0,3.75-.22,7.54-.16,11.38v.62Z"/><path class="a" d="M2355,984.64a17.82,17.82,0,0,1,15.29,9.18l1.14.47a17.87,17.87,0,0,1,31.42-.62,17.91,17.91,0,0,1,31.86,1.43,17.84,17.84,0,0,1,30.79-3c2.19-1.12,4.32-2.31,6.35-3.61q21.9-14,33.16-40.22,9.21-21.49,9.21-79.83V774.1h-55.88V883.2q0,31.51-3.49,41.14-4.71,12.9-14.46,19.55t-23.7,6.65q-13.95,0-23.49-6.75a38,38,0,0,1-13.85-18.94q-4.32-12.17-4.31-43.5V774.1h-56.5v92.72q0,53.43,6.55,73.69Q2333.9,968.48,2355,984.64Z"/><path class="a" d="M2581.36,984.62a17.9,17.9,0,0,1,16.3,10.48,17.92,17.92,0,0,1,32.6,0,18,18,0,0,1,2.13-3.46v-84.9l-.2-10.85q0-46.67,8.9-62.64t21.8-16q6.34,0,16.17,4.91l17.4-48.1q-11.88-5.73-22.72-5.73a49.88,49.88,0,0,0-28.25,8.59q-12.88,8.61-20.67,25.18v-28h-47.9V985.21A18,18,0,0,1,2581.36,984.62Z"/><path class="a" d="M2967.12,891q0-55.25-33-88.91t-85.58-33.67q-49.53,0-82.37,33.67t-32.86,84.61q0,49.79,33,82.8a108.45,108.45,0,0,0,29.76,21.25,17.92,17.92,0,0,1,29.75,4.4,17.92,17.92,0,0,1,32.6,0,17.88,17.88,0,0,1,32.57,0,17.89,17.89,0,0,1,16.3-10.51,17.69,17.69,0,0,1,9.09,2.52q20.52-11.88,35.81-33.54l-47.09-22.12q-22.52,21.93-53.82,21.93-26.2,0-43.12-14t-20.76-37.78h179.5Zm-177.27-33.34q9.41-20.67,20.5-28.88c11.74-8.7,25.42-13.1,41-13.1q21.54,0,37.81,11.67A56.21,56.21,0,0,1,2911,857.62Z"/><path class="a" d="M1492.52,334.77a46.74,46.74,0,0,0-18.41-17.47,54.92,54.92,0,0,0-26.45-6.34,53.61,53.61,0,0,0-24.29,5.4l-.2.1a41.36,41.36,0,0,0-4.07,2.33v-139h-55.89V318.17a32.19,32.19,0,0,0-3.24-1.81,18.85,18.85,0,0,0-1.77-.81,53.79,53.79,0,0,0-22.55-4.59,54.8,54.8,0,0,0-26.42,6.34,46.77,46.77,0,0,0-25,41.79q0,19,13.58,33.21t37.55,14.2a55.63,55.63,0,0,0,23.71-4.79,41.86,41.86,0,0,0,4.17-2.23V993.33a15.91,15.91,0,0,1,1,1.78,17.88,17.88,0,0,1,32.57,0,17.84,17.84,0,0,1,22.35-9.44V398.87a42.18,42.18,0,0,0,4.2,2.36q10.68,5.28,24.71,5.27,24,0,37.55-14.2t13.55-33.21A46.83,46.83,0,0,0,1492.52,334.77Zm-101.37,397A19.86,19.86,0,1,1,1411,711.88,19.87,19.87,0,0,1,1391.15,731.74Z"/><path class="b" d="M1502.08,146.47a32.84,32.84,0,0,1-32.84,32.83c-6.14,0-18.66-1.8-32.57-4.9,8.58,9.94,15.5,19.16,18.39,24.16a32.84,32.84,0,0,1-56.88,32.83,114.46,114.46,0,0,1-6.66-15,122.79,122.79,0,0,1-6.66,14.49A32.83,32.83,0,1,1,1328,198c2.89-5,10-14.12,18.83-23.92-12.75,3-24.06,4.9-29.8,5.14a32.83,32.83,0,0,1-2.91-65.6c6-.26,18.1.91,31.68,3.26-8-9.33-14.28-17.82-17-22.56a32.84,32.84,0,1,1,56.89-32.83,128.07,128.07,0,0,1,7.46,17.16A135.13,135.13,0,0,1,1400.65,62a32.83,32.83,0,1,1,56.87,32.83c-2.75,4.77-9.27,13.21-17.5,22.42,12.55-2.36,23.57-3.68,29.22-3.68A32.85,32.85,0,0,1,1502.08,146.47Z"/><circle class="c" cx="1394.02" cy="146.46" r="36.68"/><path class="a" d="M2199.21,430a88.72,88.72,0,0,1,6.08,8.66,40.22,40.22,0,0,1,4.64,9.92l-4.53-.43a22.6,22.6,0,0,1,7.61-8.94,39.2,39.2,0,0,1,10.2-5.22,3.2,3.2,0,1,1,2,6.08l-.21.06-.17,0a31.72,31.72,0,0,0-4.47,1.55,33.47,33.47,0,0,0-4.26,2.18,17.37,17.37,0,0,0-6.33,6.36l-.07.13a2.41,2.41,0,0,1-3.25,1,2.44,2.44,0,0,1-1.21-1.56,35.6,35.6,0,0,0-3.81-8.78,87.52,87.52,0,0,0-5.51-8.37l-.08-.1a2.12,2.12,0,0,1,3.37-2.58Z"/><path class="d" d="M2271.25,500.88A301.89,301.89,0,0,1,2221.67,441c-.35-.52-.66-1-.92-1.46-1-1.66-1.51-2.57-1.51-2.57s1.06-.95,3.1-2.63a302.18,302.18,0,0,1,64.1-40.09c67.72-31.2,173.47-46.64,254,94.34C2420.76,597.75,2326,551.65,2271.25,500.88Z"/><path class="e" d="M2251.71,431.49a188.16,188.16,0,0,0-30,9.54c-.35-.52-.66-1-.92-1.46-1-1.66-1.51-2.57-1.51-2.57s1.06-.95,3.1-2.63c20.28-7.63,40.72-11.21,61.15-12.71,5.38-.31,10.76-.77,16.09-.61l8,.05,4,0,4,.31c5.32.46,10.64.77,15.94,1.32l15.78,2.45c1.3.24,2.63.38,3.94.66l3.88.91,7.78,1.86,7.77,1.88c2.6.57,5.11,1.61,7.65,2.39l15.24,5c5,2,9.92,4.22,14.88,6.3l7.43,3.22c2.49.95,4.81,2.46,7.24,3.68l14.37,7.76,3.59,1.92,3.46,2.27,6.92,4.52,13.81,9.08-14-8.7-7-4.38-3.5-2.15-3.62-1.84-14.49-7.35a79.73,79.73,0,0,0-7.28-3.52l-7.46-3c-5-1.94-9.93-4-14.92-5.88l-15.27-4.63c-2.56-.69-5.05-1.67-7.66-2.17l-7.78-1.66-7.75-1.66-3.86-.85c-1.32-.21-2.64-.32-3.94-.51l-15.71-2.06c-5.27-.43-10.56-.58-15.85-.93l-3.95-.19-4,.09-8,.14c-5.3-.06-10.62.54-15.92,1A239.29,239.29,0,0,0,2251.71,431.49Z"/><path class="f" d="M2144.59,443.8a206.61,206.61,0,0,0,52.07-10.08c.41-.13.79-.26,1.11-.38l1.91-.7s-.14-1-.49-2.73A206.13,206.13,0,0,0,2182.75,381c-22.2-45.79-71.28-99.74-174.84-60.29C2023.78,430.12,2093.74,446.88,2144.59,443.8Z"/><path class="e" d="M2185,415.67a128.22,128.22,0,0,1,11.71,18.05c.41-.13.79-.26,1.11-.38l1.91-.7s-.14-1-.49-2.73c-7.39-12.81-16.62-23.55-26.75-33.19-2.7-2.49-5.33-5.07-8.22-7.29L2160,386l-2.12-1.73-2.24-1.55c-3-2.07-5.94-4.21-9-6.21l-9.39-5.55c-.78-.44-1.55-.94-2.36-1.36l-2.44-1.2-4.9-2.39-4.92-2.37c-1.62-.83-3.39-1.37-5.07-2.05l-10.21-3.95c-3.5-1.12-7.06-2.07-10.58-3.12l-5.31-1.53c-1.73-.57-3.61-.78-5.42-1.19l-10.94-2.14-2.72-.54-2.81-.3-5.6-.61-11.22-1.2,11.13,1.46,5.57.71,2.78.38,2.71.6,10.82,2.4c1.79.43,3.65.7,5.37,1.3l5.24,1.64c3.46,1.14,7,2.18,10.41,3.36l10.06,4.17c1.65.75,3.39,1.31,5,2.18l4.82,2.49,4.81,2.49,2.4,1.22c.79.46,1.53,1,2.3,1.43l9.18,5.72c3,2.06,5.82,4.27,8.76,6.38l2.17,1.61,2.05,1.76,4.14,3.53c2.82,2.27,5.37,4.88,8,7.42A163.25,163.25,0,0,1,2185,415.67Z"/></svg>