<svg xmlns="http://www.w3.org/2000/svg" viewBox="0 0 3001.91 1247.02"><defs><style>.a{fill:#39b54a;}.b{fill:#006837;}.c{fill:#fff5eb;}.d{fill:#fd0;}.e{fill:#76b82a;}.f{fill:#009245;}.g{fill:#52ae32;}</style></defs><path class="a" d="M133.5,730.46c-30.35,0-56.93-11.9-79-35.36s-33.11-52.73-33.11-87.31c0-35.79,10.78-65.6,32.06-88.61s47.78-34.88,78.41-34.88a100.51,100.51,0,0,1,40,8.06A104,104,0,0,1,196,507.06V490h67.88v234.7H196V708.36a104.87,104.87,0,0,1-24.51,14.78A98.18,98.18,0,0,1,133.5,730.46Zm9.74-182.58c-15.68,0-28.32,5.37-38.66,16.42s-15.52,25.19-15.52,42.87c0,17.83,5.18,32,15.82,43.39s23.16,16.73,38.57,16.73c16,0,28.82-5.38,39.29-16.45s15.7-25.51,15.7-43.87c0-17.93-5.12-32-15.66-42.92S159.37,547.88,143.24,547.88Z"/><path class="b" d="M131.86,490.3a94.08,94.08,0,0,1,37.62,7.57A102.76,102.76,0,0,1,202,520.59V496h55.88v222.7H202V695.19q-16.37,15.55-32.82,22.41a91.83,91.83,0,0,1-35.67,6.86q-43.14,0-74.63-33.47t-31.48-83.2q0-51.59,30.46-84.54t74-32.95m11.59,183q26.31,0,43.65-18.32t17.34-48q0-29.07-17.34-47.08t-43.86-18q-25.91,0-43,18.32t-17.14,47q0,28.86,17.44,47.49t42.95,18.63m-11.59-195c-32.38,0-60.24,12.38-82.82,36.8-22.33,24.16-33.65,55.35-33.65,92.69,0,36.16,11.69,66.92,34.74,91.43,23.25,24.71,51.3,37.24,83.37,37.24a104.27,104.27,0,0,0,40.29-7.78,101.39,101.39,0,0,0,16.2-8.62v10.67h79.88V484H190V495.3a104.83,104.83,0,0,0-58.13-17Zm11.59,183c-13.66,0-24.85-4.85-34.19-14.83-9.55-10.2-14.2-23.05-14.2-39.29,0-16.09,4.55-28.78,13.9-38.78,9.14-9.76,20.35-14.51,34.28-14.51,14.41,0,25.93,4.69,35.22,14.33s14,22.46,14,38.76c0,16.75-4.59,29.76-14.05,39.75-9.28,9.8-20.71,14.57-34.94,14.57Z"/><path class="a" d="M374.54,730.46c-34.3,0-62.07-13.6-82.55-40.43l-3.05-4,42.36-46.14,4.4,5.13A73.73,73.73,0,0,0,357,662.16c7.88,4.22,14.81,6.36,20.61,6.36s10.7-1.36,14.09-4c4-3.15,4.47-5.83,4.47-7.57,0-5.93-7.48-13-21.06-19.82l-18.81-9.41c-38.06-19.17-57.36-43.9-57.36-73.52,0-19.27,7.51-35.94,22.31-49.55,14.65-13.48,33.55-20.31,56.15-20.31a96.35,96.35,0,0,1,78.09,39.25l3.11,4.16L416.11,570.2l-4.24-4.2c-12.83-12.71-24.29-19.14-34.06-19.14-4.92,0-8.67.93-11.13,2.78s-2.93,3.76-2.93,5.13a6.18,6.18,0,0,0,1.86,4.3c.78.88,3.79,3.51,14.85,8.95L401,578.27c22.63,11.17,37.87,22.41,46.59,34.38s13.22,26.32,13.22,42.42c0,21.45-8,39.61-23.76,54C421.42,723.25,400.39,730.46,374.54,730.46Z"/><path class="b" d="M377.4,490.3a90.32,90.32,0,0,1,73.28,36.84l-34.59,34.59Q395,540.85,377.81,540.86q-9.4,0-14.73,4t-5.33,9.93a12.19,12.19,0,0,0,3.38,8.29q3.38,3.8,16.68,10.34l20.47,10.23q32.34,16,44.42,32.55t12.08,38.89q0,29.68-21.8,49.53t-58.44,19.86q-48.72,0-77.78-38.07l34.38-37.46a79.35,79.35,0,0,0,23,18.52q13.2,7.06,23.44,7.07,11.06,0,17.81-5.33t6.75-12.28q0-12.88-24.36-25.18L359,622.32q-54-27.23-54-68.16,0-26.4,20.37-45.14T377.4,490.3m0-12c-24.16,0-44.41,7.36-60.21,21.89-16.09,14.79-24.25,32.95-24.25,54,0,32.07,20.41,58.61,60.64,78.88l18.87,9.43c14,7.06,17.72,12.54,17.72,14.44,0,.76-.73,1.72-2.18,2.86-2.31,1.82-5.81,2.75-10.38,2.75-4.8,0-10.78-1.9-17.78-5.65a67.77,67.77,0,0,1-19.57-15.75l-8.81-10.27-9.15,10-34.38,37.46-6.8,7.41,6.1,8c21.67,28.39,51,42.79,87.32,42.79,27.4,0,49.78-7.73,66.52-23,17.06-15.53,25.72-35.19,25.72-58.4,0-17.39-4.84-32.85-14.38-46-9.3-12.76-25.26-24.61-48.78-36.22l-20.44-10.22,0,0,0,0c-10.25-5-12.73-7.27-13.05-7.59a2.7,2.7,0,0,1-.2-.25,3.81,3.81,0,0,1,.42-.35c.79-.59,2.82-1.58,7.53-1.58,8,0,18.34,6,29.84,17.4l8.48,8.4,8.45-8.44,34.59-34.59,7.34-7.35L460.29,520A102.34,102.34,0,0,0,377.4,478.3Z"/><path class="a" d="M492.78,806.19V490h67.47v17.12a105.94,105.94,0,0,1,24.38-14.79,100.72,100.72,0,0,1,40-8.06c30.66,0,57.07,11.73,78.5,34.87s32.09,52.83,32.09,88.62c0,34.58-11.15,64-33.15,87.32s-48.7,35.35-79.08,35.35a99.2,99.2,0,0,1-38.11-7.31,104.72,104.72,0,0,1-24.67-14.81v97.85ZM613,547.88c-16.06,0-29,5.29-39.49,16.18S557.8,589,557.8,607c0,18.36,5.15,32.71,15.75,43.86S597,667.29,613,667.29c15.47,0,28.13-5.48,38.71-16.74s15.88-25.55,15.88-43.38c0-17.68-5.1-31.7-15.57-42.87S628.88,547.88,613,547.88Z"/><path class="b" d="M624.67,490.3q43.59,0,74.09,32.95t30.5,84.54q0,49.74-31.52,83.2T623,724.46a92.8,92.8,0,0,1-35.82-6.86q-16.58-6.86-33-22.41v105H498.78V496h55.47v24.56A105.15,105.15,0,0,1,587,497.87a94.28,94.28,0,0,1,37.67-7.57M613,673.29q25.57,0,43.09-18.63t17.5-47.49q0-28.65-17.2-47T613,541.88q-26.4,0-43.8,18T551.8,607q0,29.68,17.4,48T613,673.29m11.67-195a106.76,106.76,0,0,0-42.41,8.54,108.61,108.61,0,0,0-16,8.58V484H486.78V812.19h79.47V720a102,102,0,0,0,16.37,8.67A105.09,105.09,0,0,0,623,736.46c32.09,0,60.17-12.53,83.44-37.24,23.09-24.51,34.79-55.27,34.79-91.43,0-37.34-11.33-68.53-33.69-92.69-22.61-24.42-50.5-36.8-82.9-36.8ZM613,661.29c-14.3,0-25.79-4.77-35.1-14.58-9.49-10-14.1-23-14.1-39.74,0-16.3,4.59-29,14-38.74s20.83-14.35,35.17-14.35c14.13,0,25.46,4.75,34.64,14.53,9.39,10,14,22.68,14,38.76,0,16.23-4.66,29.07-14.25,39.27-9.38,10-20.62,14.85-34.34,14.85Z"/><path class="a" d="M883.39,730.46c-36.42,0-66.57-11.72-89.6-34.82s-34.71-52.38-34.71-87c0-35.43,11.63-65.32,34.56-88.82s52.14-35.48,86.68-35.48c36.58,0,66.81,11.93,89.85,35.47s34.67,54.84,34.67,93.13l-.32,16.65h-178a51.66,51.66,0,0,0,17.19,27.15c10.1,8.38,23.3,12.63,39.25,12.63,19.44,0,35.68-6.61,49.65-20.2l3-2.89,57.31,26.91L988.8,679c-12.27,17.4-27.22,30.48-44.44,38.88S906.72,730.46,883.39,730.46Zm50.66-156.92a50.28,50.28,0,0,0-16.63-19.41c-9.91-7.1-21.14-10.55-34.34-10.55-14.19,0-26.78,4-37.42,11.91-5,3.68-9.79,9.73-14.38,18Z"/><path class="b" d="M880.32,490.3q52.6,0,85.56,33.67t33,88.93l-.21,10.65H819.12Q823,647.3,839.9,661.31t43.08,14q31.32,0,53.84-21.9l47.07,22.11q-17.6,25-42.16,36.94t-58.34,12Q831,724.46,798,691.4t-33-82.8q0-51,32.86-84.63t82.38-33.67m-58.74,89.24H942.75a56,56,0,0,0-21.84-30.29q-16.29-11.67-37.83-11.67-23.37,0-41,13.1-11.07,8.19-20.5,28.86M880.32,478.3c-36.22,0-66.83,12.54-91,37.29s-36.27,56-36.27,93c0,36.31,12.27,67,36.46,91.27s55.78,36.59,93.85,36.59c24.25,0,45.65-4.44,63.6-13.19,18.14-8.84,33.85-22.57,46.71-40.82l8.24-11.69-13-6.08-47.07-22.11L934.4,639l-5.95,5.79c-12.8,12.45-27.67,18.5-45.47,18.5-14.71,0-26.3-3.68-35.42-11.25A45,45,0,0,1,835,635.55H1010.4l.23-11.77.2-10.65v-.23c0-39.91-12.24-72.66-36.38-97.33s-55.89-37.27-94.14-37.27Zm-38.08,89.24a35.19,35.19,0,0,1,7-7.21c9.74-7.24,20.81-10.75,33.86-10.75,11.9,0,22,3.08,30.85,9.42a48.21,48.21,0,0,1,9.23,8.54Z"/><path class="a" d="M1158.29,730.46c-40.69,0-73.1-12.33-96.35-36.65s-34.92-53-34.92-85.61a120.66,120.66,0,0,1,64.46-107.63c20.11-10.8,42.86-16.27,67.63-16.27,22.94,0,43.88,4.65,62.24,13.83a119.61,119.61,0,0,1,45.45,39.52l3.77,5.47-56.38,31-3.18-3.33c-8.13-8.49-16.17-14.43-23.9-17.64s-17.09-4.86-27.72-4.86c-19.47,0-34.69,5.56-46.55,17s-17.53,25.66-17.53,43.61c0,17.41,5.5,31.17,16.81,42.07s26,16.31,44.82,16.31c23.32,0,40.9-7.65,53.75-23.39l3.49-4.27L1268,676.5l-3.86,5C1239.19,714,1203.57,730.46,1158.29,730.46Z"/><path class="b" d="M1159.11,490.3q33.15,0,59.56,13.2a113,113,0,0,1,43.19,37.56l-46.52,25.58q-13.11-13.71-25.92-19t-30-5.32q-31.35,0-50.72,18.7t-19.36,47.92q0,28.41,18.65,46.39t49,18q37.5,0,58.4-25.59l44.06,30.17q-35.82,46.59-101.11,46.59-58.76,0-92-34.8T1033,608.2a114.54,114.54,0,0,1,16.17-59.57q16.17-27.21,45.13-42.78t64.79-15.55m0-12c-25.77,0-49.48,5.71-70.46,17A126.63,126.63,0,0,0,1021,608.2c0,34.16,12.31,64.36,36.59,89.76s58.29,38.5,100.68,38.5c47.25,0,84.47-17.25,110.63-51.28l7.73-10L1266.18,668l-44.06-30.17-9.1-6.23-7,8.54c-11.64,14.25-27.71,21.18-49.11,21.18-17.16,0-30.45-4.79-40.65-14.63s-15-22.06-15-37.75c0-16.24,5.13-29.09,15.7-39.29s24.55-15.33,42.38-15.33c9.83,0,18.39,1.48,25.42,4.4s14.31,8.36,21.86,16.25l6.37,6.66,8.08-4.44,46.52-25.59,11.63-6.39-7.53-10.93a125.43,125.43,0,0,0-47.7-41.48c-19.2-9.6-41-14.47-64.93-14.47Z"/><path class="a" d="M647.31,1100.31a8.28,8.28,0,0,1-6.65-3.38,11.91,11.91,0,0,0-3-2.89l-2.63-1.78v-91.72c0-25.15-1.17-42.26-3.48-50.85-2.09-7.78-5.59-13.59-10.41-17.24s-10.93-5.54-18.38-5.54a35.4,35.4,0,0,0-25.1,9.66c-7.2,6.66-12.29,16-15.13,27.71-1,4.27-2.28,15.43-2.28,44.44v81.06a7.09,7.09,0,0,1-2.35,5.26,12.36,12.36,0,0,0-1.66,1.82,8.31,8.31,0,0,1-13.42,0,11.9,11.9,0,0,0-19.22.08,8.19,8.19,0,0,1-13.29,0,12,12,0,0,0-9.66-4.92l-.38,0-.24,0h-.31a7,7,0,0,1-6.94-6.94V783.5h67.47v102a124,124,0,0,1,24.6-14.25,91.39,91.39,0,0,1,35.92-7.54c23.66,0,43.89,8.31,60.14,24.7C695,902.8,702.1,923.84,702.1,951v132.65a8.48,8.48,0,0,1-7.39,8.44,11.93,11.93,0,0,0-8,4.57,8.64,8.64,0,0,1-13.68,0,11.85,11.85,0,0,0-9.46-4.67,12,12,0,0,0-9.66,4.92A8.22,8.22,0,0,1,647.31,1100.31Z"/><path class="b" d="M554.26,789.5V898q16.37-14.13,33-21.19a84.91,84.91,0,0,1,33.57-7.06q33.16,0,55.88,22.92Q696.1,912.52,696.1,951v132.65a2.47,2.47,0,0,1-2.12,2.48,17.94,17.94,0,0,0-12,6.87,2.63,2.63,0,0,1-4.16,0,17.93,17.93,0,0,0-28.73.39,2.21,2.21,0,0,1-3.59,0,18.13,18.13,0,0,0-4.47-4.31v-88.54q0-38.7-3.68-52.41t-12.59-20.46q-8.91-6.76-22-6.76a41.5,41.5,0,0,0-29.17,11.26q-12.18,11.26-16.89,30.7-2.46,10-2.45,45.85v81.06a1.06,1.06,0,0,1-.37.8,18.66,18.66,0,0,0-2.47,2.71,2.31,2.31,0,0,1-3.75,0,17.89,17.89,0,0,0-28.91.1,2.22,2.22,0,0,1-1.79.92,2.19,2.19,0,0,1-1.79-.92,17.93,17.93,0,0,0-14.52-7.4,8.06,8.06,0,0,0-.85,0h-.08a.94.94,0,0,1-.94-.94V789.5h55.47m12-12H486.79v307.59A13,13,0,0,0,499.73,1098c.34,0,.68,0,1,0a5.82,5.82,0,0,1,4.71,2.45,14.21,14.21,0,0,0,23,0,5.86,5.86,0,0,1,4.8-2.45,5.78,5.78,0,0,1,4.71,2.38,14.32,14.32,0,0,0,23.09.06,5.59,5.59,0,0,1,.84-.92,13.1,13.1,0,0,0,4.35-9.73v-81.06c0-29.9,1.32-39.77,2.11-43,2.6-10.74,7-18.82,13.37-24.74a29.65,29.65,0,0,1,21-8.07c6.09,0,10.92,1.41,14.75,4.32s6.51,7.55,8.25,14c1.49,5.55,3.27,18.62,3.27,49.29v94.9l5.26,3.57a6.13,6.13,0,0,1,1.51,1.45,14.21,14.21,0,0,0,23,0,5.92,5.92,0,0,1,9.5-.13,14.64,14.64,0,0,0,23.2,0,5.85,5.85,0,0,1,4-2.27,14.48,14.48,0,0,0,12.64-14.39V951c0-28.78-7.69-51.23-22.87-66.73l0,0,0,0c-17.41-17.57-39.08-26.48-64.4-26.48a97.33,97.33,0,0,0-38.27,8,121.5,121.5,0,0,0-16.25,8.48V777.5Z"/><path class="a" d="M1071,1100.12a8.46,8.46,0,0,1-6.79-3.39,11.79,11.79,0,0,0-9.48-4.74,11.66,11.66,0,0,0-4.34.82,8.47,8.47,0,0,1-3.14.6h0a8.47,8.47,0,0,1-8.46-8.45V876.5a7,7,0,0,1,7-7h45.84a7,7,0,0,1,7,7v6.78a58.76,58.76,0,0,1,11.34-9.94,56.07,56.07,0,0,1,31.58-9.6,57.78,57.78,0,0,1,24.4,5.89,7,7,0,0,1,3.64,8.76L1153,924.54a7,7,0,0,1-9.67,3.93c-6.53-3.15-10.42-3.81-12.53-3.81-6.31,0-11.72,4.21-16.56,12.89-3.71,6.66-8.14,22.41-8.14,59.65l.2,10.91v81.13a7,7,0,0,1-11.47,5.44,11.7,11.7,0,0,0-7.49-2.69,11.84,11.84,0,0,0-9.52,4.74A8.45,8.45,0,0,1,1071,1100.12Z"/><path class="b" d="M1141.61,869.74q10.46,0,21.87,5.32a1.05,1.05,0,0,1,.53,1.3l-16.69,46.13a1,1,0,0,1-1.42.58q-9.14-4.41-15.14-4.41-12.88,0-21.8,16t-8.9,62.64l.2,10.85v81.13a1,1,0,0,1-1,1,1,1,0,0,1-.64-.23,17.87,17.87,0,0,0-25.6,3.07,2.48,2.48,0,0,1-4,0,17.88,17.88,0,0,0-20.82-5.88,2.56,2.56,0,0,1-.93.18,2.46,2.46,0,0,1-2.46-2.45V876.5a1,1,0,0,1,1-1h45.84a1,1,0,0,1,1,1v22.67a1,1,0,0,0,1.94.47q7.38-13.74,18.73-21.31a50,50,0,0,1,28.25-8.59m0-12a61.89,61.89,0,0,0-34.9,10.61c-1.15.76-2.26,1.56-3.36,2.4a13,13,0,0,0-11.69-7.28h-45.84a13.05,13.05,0,0,0-13,13V1085a14.46,14.46,0,0,0,19.8,13.43,5.77,5.77,0,0,1,2.14-.4,5.85,5.85,0,0,1,4.69,2.35,14.48,14.48,0,0,0,23.15,0,5.89,5.89,0,0,1,4.73-2.35,5.74,5.74,0,0,1,3.68,1.33,13,13,0,0,0,21.28-10.08v-81.36l-.2-10.73c0-37.81,4.63-51.74,7.38-56.68,5.47-9.81,9.87-9.81,11.32-9.81,1,0,3.91.31,9.92,3.21a13,13,0,0,0,17.93-7.29l16.68-46.14a13,13,0,0,0-6.74-16.25,63.81,63.81,0,0,0-26.94-6.45Z"/><path class="a" d="M876.58,1100.06a8.39,8.39,0,0,1-6.77-3.39,11.9,11.9,0,0,0-19-.1,8.59,8.59,0,0,1-13.69,0,11.78,11.78,0,0,0-9.45-4.68,11.65,11.65,0,0,0-6.29,1.81l-3.09,2-3.17-1.85A127.43,127.43,0,0,1,789.73,1074c-23.64-23.82-35.62-53.09-35.62-87,0-36.4,13.55-67.17,40.26-91.45,23.4-21.12,50.7-31.83,81.17-31.83a124.47,124.47,0,0,1,62.25,16.54,121.63,121.63,0,0,1,61.87,106.32,123.17,123.17,0,0,1-16.45,61.93,119.61,119.61,0,0,1-44.92,45.12l-.15.09-.15.07-.34.19-3,1.55-2.89-1.76a11.9,11.9,0,0,0-15.61,2.7,8.91,8.91,0,0,1-13.94,0,11.92,11.92,0,0,0-18.86.26A8.39,8.39,0,0,1,876.58,1100.06Zm-.1-171.81c-15.79,0-28.56,5.32-39,16.26s-15.67,24.86-15.67,42.23c0,17.93,5.07,32,15.49,42.92s23.11,16.16,39,16.16,28.79-5.36,39.33-16.36,15.76-25.09,15.76-42.72-5.06-31.54-15.47-42.42S892.67,928.25,876.48,928.25Z"/><path class="b" d="M875.54,869.66a118.1,118.1,0,0,1,59.29,15.75,115.65,115.65,0,0,1,58.83,101.11,116.94,116.94,0,0,1-15.65,59,113.22,113.22,0,0,1-42.7,42.88l-.42.23a17.88,17.88,0,0,0-23.44,4.08,2.89,2.89,0,0,1-4.54,0,17.91,17.91,0,0,0-28.36.4,2.46,2.46,0,0,1-3.94,0,17.88,17.88,0,0,0-28.54-.13,2.58,2.58,0,0,1-4.14,0,17.86,17.86,0,0,0-23.73-4.29A120,120,0,0,1,794,1069.73q-33.87-34.1-33.87-82.79,0-52.22,38.3-87,33.51-30.27,77.13-30.27m.75,182.16c17.46,0,32.05-6.08,43.66-18.21s17.43-27.79,17.43-46.87-5.72-34.64-17.14-46.57-26-17.92-43.76-17.92q-26.06,0-43.37,18.11t-17.34,46.38q0,29.07,17.15,47.06t43.37,18m-.75-194.16c-32,0-60.66,11.23-85.18,33.37-28,25.48-42.25,57.74-42.25,95.91,0,35.59,12.57,66.29,37.35,91.25A133.37,133.37,0,0,0,812.13,1099l6.32,3.7,6.18-3.93a5.78,5.78,0,0,1,3.08-.88,5.86,5.86,0,0,1,4.69,2.33,14.58,14.58,0,0,0,23.23,0,5.79,5.79,0,0,1,4.65-2.3,5.88,5.88,0,0,1,4.73,2.37,14.45,14.45,0,0,0,23.13,0,5.92,5.92,0,0,1,9.37-.13,14.91,14.91,0,0,0,23.34,0,5.87,5.87,0,0,1,7.78-1.31l5.77,3.53,6-3.11.42-.23.15-.08.3-.16a125.62,125.62,0,0,0,47.14-47.35,129.18,129.18,0,0,0,17.24-64.91A127.66,127.66,0,0,0,940.76,875a130.54,130.54,0,0,0-65.22-17.32Zm.75,182.16c-14.19,0-25.53-4.68-34.68-14.29-9.31-9.79-13.84-22.47-13.84-38.79,0-15.75,4.59-28.21,14-38.09,9.27-9.69,20.62-14.4,34.69-14.4,14.46,0,25.94,4.65,35.09,14.21,9.29,9.72,13.81,22.24,13.81,38.28s-4.61,28.63-14.11,38.58c-9.33,9.75-20.78,14.5-35,14.5Z"/><path class="a" d="M1234,1099.33a10.07,10.07,0,0,1-7.48-3.35,11.89,11.89,0,0,0-5.66-3.52,11.68,11.68,0,0,1-8.47-11.27V929.57h-28.66v-60.1h28.66V787.39h67.88v82.08h33.16v60.1H1280.3v155.85a11.17,11.17,0,0,1-4.53,8.95,11.26,11.26,0,0,0-1.63,1.45,10.44,10.44,0,0,1-7.59,3.3,10.27,10.27,0,0,1-7.54-3.31,11.9,11.9,0,0,0-17.67.22,9.74,9.74,0,0,1-7.31,3.3Z"/><path class="b" d="M1274.3,793.39v82.08h33.16v48.1H1274.3v161.85a5.12,5.12,0,0,1-2.09,4.12,18.1,18.1,0,0,0-2.45,2.18,4.38,4.38,0,0,1-3.21,1.4,4.24,4.24,0,0,1-3.13-1.37,17.89,17.89,0,0,0-26.59.32,3.71,3.71,0,0,1-2.8,1.27,4,4,0,0,1-3-1.37,18,18,0,0,0-8.52-5.29,5.66,5.66,0,0,1-4.08-5.49V923.57h-28.66v-48.1h28.66V793.39h55.88m12-12h-79.88v82.08h-28.66v72.1h28.66v145.62a17.71,17.71,0,0,0,12.87,17.06,5.92,5.92,0,0,1,2.79,1.73,16.1,16.1,0,0,0,12,5.36,15.73,15.73,0,0,0,11.82-5.35,5.79,5.79,0,0,1,4.42-2,5.86,5.86,0,0,1,4.33,1.89,16.31,16.31,0,0,0,23.92,0,6.38,6.38,0,0,1,.82-.73,17.19,17.19,0,0,0,7-13.77V935.57h33.16v-72.1H1286.3V781.39Z"/><path class="a" d="M1657.67,1100.14a8.54,8.54,0,0,1-6.86-3.43,11.86,11.86,0,0,0-18.77-.22,8.91,8.91,0,0,1-14,0,11.88,11.88,0,0,0-18.5-.15,9.16,9.16,0,0,1-14.17,0,11.92,11.92,0,0,0-18.26-.21,9.54,9.54,0,0,1-14.52,0,11.92,11.92,0,0,0-9-4.15,11.78,11.78,0,0,0-3.36.49l-2.52.74-2.25-1.35a111.25,111.25,0,0,1-23.35-18.62c-23.17-24.24-34.92-53-34.92-85.61A120.66,120.66,0,0,1,1541.65,880c20.11-10.8,42.86-16.27,67.63-16.27,22.94,0,43.88,4.66,62.24,13.84A119.5,119.5,0,0,1,1717,917.09l3.77,5.47-56.38,31-3.18-3.34c-8.13-8.49-16.17-14.43-23.9-17.64s-17.09-4.86-27.72-4.86c-19.47,0-34.69,5.57-46.55,17s-17.53,25.65-17.53,43.6c0,17.41,5.5,31.17,16.81,42.07s26,16.31,44.81,16.31c23.33,0,40.91-7.65,53.76-23.38l3.49-4.27,53.84,36.86-3.86,5a122.93,122.93,0,0,1-33.79,30.52l-2,1.2-2.28-.45a12,12,0,0,0-2.31-.25,11.72,11.72,0,0,0-9.43,4.72A8.54,8.54,0,0,1,1657.67,1100.14Z"/><path class="b" d="M1609.28,869.74q33.15,0,59.56,13.2A113.13,113.13,0,0,1,1712,920.5l-46.52,25.59q-13.11-13.71-25.92-19t-30-5.32q-31.35,0-50.72,18.7t-19.36,47.92q0,28.41,18.65,46.4t49,18q37.51,0,58.41-25.59l44.06,30.17a116.25,116.25,0,0,1-32.14,29,17.23,17.23,0,0,0-3.47-.37,17.78,17.78,0,0,0-14.22,7.1,2.58,2.58,0,0,1-4.15,0,17.85,17.85,0,0,0-28.24-.33,2.93,2.93,0,0,1-2.29,1.1,2.9,2.9,0,0,1-2.28-1.1,17.88,17.88,0,0,0-27.84-.22,3.17,3.17,0,0,1-2.45,1.16,3.14,3.14,0,0,1-2.45-1.16,17.92,17.92,0,0,0-27.43-.32,3.55,3.55,0,0,1-5.44,0,17.9,17.9,0,0,0-18.63-5.5,105,105,0,0,1-22.09-17.61q-33.27-34.8-33.26-81.47a114.56,114.56,0,0,1,16.17-59.57q16.17-27.21,45.13-42.77t64.79-15.56m0-12c-25.78,0-49.48,5.71-70.47,17a126.68,126.68,0,0,0-67.62,112.92c0,34.16,12.31,64.36,36.59,89.76a117.29,117.29,0,0,0,24.6,19.62l4.5,2.7,5-1.49a6.07,6.07,0,0,1,1.67-.24,5.86,5.86,0,0,1,4.49,2.06,15.54,15.54,0,0,0,23.62,0,5.86,5.86,0,0,1,4.49-2.06,5.92,5.92,0,0,1,4.58,2.16,15.15,15.15,0,0,0,23.45,0,5.88,5.88,0,0,1,9.16.08,14.91,14.91,0,0,0,23.36,0,5.87,5.87,0,0,1,4.62-2.23,5.79,5.79,0,0,1,4.66,2.34,14.58,14.58,0,0,0,23.29,0,5.6,5.6,0,0,1,5.8-2.2l4.56.9,4-2.41a129,129,0,0,0,35.44-32l7.72-10.06-10.46-7.16-44.06-30.17-9.1-6.23-7,8.54c-11.64,14.25-27.71,21.18-49.12,21.18-17.15,0-30.44-4.78-40.64-14.62s-15-22.07-15-37.76c0-16.23,5.13-29.09,15.7-39.29s24.55-15.33,42.38-15.33c9.83,0,18.39,1.48,25.42,4.4s14.31,8.36,21.86,16.25l6.37,6.67,8.08-4.45L1717.81,931l11.63-6.39-7.53-10.93a125.52,125.52,0,0,0-47.7-41.48c-19.2-9.6-41-14.47-64.93-14.47Z"/><path class="a" d="M1914.92,1100.34a8.22,8.22,0,0,1-6.65-3.4,11.92,11.92,0,0,0-9.65-5,11.8,11.8,0,0,0-9.46,4.68,8.59,8.59,0,0,1-13.69,0,11.89,11.89,0,0,0-18.77-.18,8.91,8.91,0,0,1-14,0,11.82,11.82,0,0,0-16.2-2.25l-3.34,2.4-3.44-2.26-.89-.57c-.65-.41-1.39-.88-2.13-1.41-16.07-11.64-27.52-28-34-48.71-4.59-14.19-6.83-38.89-6.83-75.49V869.47h68.49V982.73c0,20.1,1.34,34.06,4,41.49,2.47,7,6.28,12.23,11.66,16s11.92,5.65,20,5.65,14.78-1.83,20.31-5.61,9.49-9.19,12.22-16.65c1.42-3.92,3.12-13.9,3.12-39.08V869.47h67.88V969.83c0,40.09-3.17,67-9.7,82.19-7.3,17-18,30.6-31.87,40.44l-2.8,2-3.14-1.41a11.68,11.68,0,0,0-4.83-1,11.93,11.93,0,0,0-9.66,5A8.2,8.2,0,0,1,1914.92,1100.34Z"/><path class="b" d="M1977.56,875.47v94.36q0,58.33-9.21,79.83-10.38,24.15-29.84,37.91a17.6,17.6,0,0,0-7.29-1.58,17.87,17.87,0,0,0-14.53,7.44,2.19,2.19,0,0,1-3.55,0,17.9,17.9,0,0,0-28.75-.4,2.59,2.59,0,0,1-4.15,0,17.89,17.89,0,0,0-28.24-.27,2.91,2.91,0,0,1-4.56,0,17.81,17.81,0,0,0-24.39-3.41c-.93-.61-1.9-1.17-2.79-1.82q-22.62-16.38-31.83-45.65-6.56-20.27-6.55-73.69V875.47h56.49V982.73q0,31.32,4.31,43.49a38,38,0,0,0,13.85,18.94q9.54,6.75,23.5,6.75t23.7-6.65q9.75-6.65,14.46-19.55,3.49-9.62,3.49-41.14V875.47h55.88m12-12h-79.88v121.1c0,26.54-1.94,34.75-2.77,37-2.27,6.21-5.53,10.72-10,13.73s-10,4.56-16.93,4.56-12.24-1.49-16.56-4.55a26,26,0,0,1-9.47-13.14c-1.66-4.67-3.63-15.31-3.63-39.49V863.47h-80.49V968.19c0,37.19,2.33,62.48,7.11,77.33,6.91,21.92,19.1,39.33,36.23,51.73.9.64,1.72,1.16,2.45,1.62l.8.51,6.87,4.52,6.7-4.79a5.81,5.81,0,0,1,8,1.09,14.91,14.91,0,0,0,23.37,0,5.89,5.89,0,0,1,9.3.09,14.59,14.59,0,0,0,23.23,0,5.89,5.89,0,0,1,9.47.13,14.19,14.19,0,0,0,23,0,5.83,5.83,0,0,1,4.79-2.45,5.7,5.7,0,0,1,2.37.52l6.27,2.82,5.6-4c14.77-10.49,26.18-24.94,33.92-42.95,6.85-16,10.18-43.65,10.18-84.57V863.47Z"/><path class="a" d="M2077.86,1100.78a7.6,7.6,0,0,1-6.37-3.44,11.86,11.86,0,0,0-9.93-5.35,11.59,11.59,0,0,0-7.72,2.9,7.64,7.64,0,0,1-5,1.89h0a7.61,7.61,0,0,1-7.61-7.6V783.5h67.88v302.34a7.59,7.59,0,0,1-10.5,7,11.74,11.74,0,0,0-4.43-.88,11.88,11.88,0,0,0-9.94,5.35A7.57,7.57,0,0,1,2077.86,1100.78Z"/><path class="b" d="M2103.09,789.5v296.34a1.62,1.62,0,0,1-1.61,1.61,1.49,1.49,0,0,1-.61-.13,17.61,17.61,0,0,0-6.71-1.33,17.86,17.86,0,0,0-14.95,8,1.6,1.6,0,0,1-2.7,0,17.88,17.88,0,0,0-15-8,17.66,17.66,0,0,0-11.66,4.38,1.66,1.66,0,0,1-1.08.41,1.59,1.59,0,0,1-1.61-1.6V789.5h55.88m12-12h-79.88v311.68a13.61,13.61,0,0,0,22.58,10.23,5.65,5.65,0,0,1,3.77-1.42,5.87,5.87,0,0,1,4.92,2.65,13.61,13.61,0,0,0,22.75,0,5.9,5.9,0,0,1,4.93-2.65,5.48,5.48,0,0,1,2.13.43,13.61,13.61,0,0,0,18.8-12.58V777.5Z"/><path class="a" d="M2208.24,1099a10.63,10.63,0,0,1-7.72-3.3,11.81,11.81,0,0,0-8.58-3.65,12.06,12.06,0,0,0-3.55.53,10.72,10.72,0,0,1-3.18.49,11,11,0,0,1-10.91-11V929.57h-28.66V869.48H2174c0-2.63.07-5.4.17-8.34l.1-2.43c.09-1.75.2-3.49.3-5.16.14-2.25.28-4.37.31-6v-.32a226.91,226.91,0,0,0-.61-37.49c-.26-2.92-.59-6-1-9.53-1.09-8-2.38-15.92-3.85-23.6-1.59-7.85-3.54-15.88-5.39-23.43-1.94-7.75-4.46-15.35-6.9-22.71l-2.22-6.25-.29-.86c-.69-2-1.4-4.13-2.05-6.28-1.48-4.78-2.79-9.65-3.89-14.43a176.21,176.21,0,0,1-4.32-29.92,186,186,0,0,1,.7-29.69,170.8,170.8,0,0,1,6.15-29.14,145.75,145.75,0,0,1,11.12-27.25,85.74,85.74,0,0,1,5.61-9.6c.63-1,1.26-2,1.87-2.93l.12-.2.13-.18c.72-1,1.43-2,2.13-3a101.81,101.81,0,0,1,6.51-8.47c6.34-8,13.69-14.69,20-20.14a10.59,10.59,0,0,1,6.87-2.54,10.52,10.52,0,0,1,8.21,17.09c-4.84,6.15-9.93,12.8-13.83,20l-.08.16-.1.16a76.29,76.29,0,0,0-3.82,7.22c-.51,1.06-1,2.12-1.55,3.16s-.84,2-1.26,3.05a65.72,65.72,0,0,0-2.9,7.72l0,.14-.05.15a115.11,115.11,0,0,0-5.17,22.78,133.25,133.25,0,0,0-.93,23.26,144.87,144.87,0,0,0,3.2,23A130.39,130.39,0,0,0,2194.1,689c1.54,3.71,3.1,7.12,4.73,10.38.86,1.75,1.78,3.46,2.66,5.11l3.09,5.66c4.18,7.91,8.31,16.4,12.65,26,6.54,14.61,14.73,34,20.11,55.09l.06.25,0,.16c0,.17.07.31.09.44l.25,1.05c1,4.16,2,8.47,2.75,12.85.58,3.27,1.12,6.76,1.61,10.61.09.63.19,1.34.28,2s.17,1.34.26,2l0,.17V821c.46,5.29.77,10.18,1,15v.12c.08,4,0,8-.16,11.84,0,1.14-.07,2.27-.1,3.41-.06,2.6-.13,4.59-.2,6.37-.07,2-.14,3.77-.15,5.81,0,1.63,0,3.33-.09,5,0,.32,0,.62,0,.93h32.39v60.09h-33.16v153.26a10.39,10.39,0,0,1-13.76,9.82,11.91,11.91,0,0,0-12.46,3A10.63,10.63,0,0,1,2208.24,1099Z"/><path class="b" d="M2205.64,545.66a4.46,4.46,0,0,1,3.41,1.57,4.52,4.52,0,0,1,.13,5.76c-5.27,6.7-10.42,13.49-14.43,20.86-2.23,3.56-3.88,7.41-5.75,11.09a118.84,118.84,0,0,0-4.47,11.62,121,121,0,0,0-5.43,24,138.16,138.16,0,0,0-1,24.29,149.34,149.34,0,0,0,3.33,24,137.08,137.08,0,0,0,7.08,22.51c1.52,3.65,3.14,7.24,4.92,10.8.87,1.78,1.81,3.53,2.75,5.27l3.1,5.69c4.47,8.45,8.54,17,12.46,25.62,7.76,17.34,14.94,35.25,19.76,54.11,0,.19.09.42.13.61,1.06,4.53,2.16,9.06,2.94,13.65.61,3.43,1.13,6.89,1.58,10.38.2,1.36.36,2.75.55,4.11.42,4.89.75,9.74.94,14.69s-.13,10-.26,15c-.13,5.66-.32,8.38-.35,12.29,0,3.75-.23,7.54-.16,11.39v.61h32.44v48.09h-33.16v159.26a4.38,4.38,0,0,1-4.37,4.39,4.32,4.32,0,0,1-1.44-.25,17.95,17.95,0,0,0-18.74,4.52,4.67,4.67,0,0,1-6.78,0,18,18,0,0,0-18.24-4.69,4.59,4.59,0,0,1-1.4.22,5,5,0,0,1-4.91-5V923.57h-28.66V875.48h28.43c-.1-4.69,0-9.38.13-14.13,0-.78.06-1.59.1-2.4.19-4,.55-8.28.61-11.25a232.92,232.92,0,0,0-.61-38.49c-.29-3.27-.65-6.5-1-9.7q-1.65-12-3.91-24c-1.62-8-3.53-15.85-5.47-23.74s-4.53-15.62-7.05-23.22l-2.23-6.31c-.78-2.3-1.55-4.56-2.26-6.89-1.43-4.62-2.69-9.28-3.79-14a169.66,169.66,0,0,1-4.17-28.88,179.89,179.89,0,0,1,.68-28.72,164.06,164.06,0,0,1,5.92-28,139.88,139.88,0,0,1,10.73-26.29c2-4.24,4.76-8.12,7.22-12.07,2.78-3.78,5.33-7.66,8.41-11.12a139.93,139.93,0,0,1,19.34-19.44,4.56,4.56,0,0,1,3-1.09m0-12a16.59,16.59,0,0,0-10.72,3.93l0,0,0,0c-6.54,5.62-14.1,12.47-20.74,20.85a110.9,110.9,0,0,0-6.78,8.82l-2.08,2.9-.27.37-.25.39c-.59.95-1.2,1.9-1.82,2.85A94.35,94.35,0,0,0,2157,584a152.31,152.31,0,0,0-11.51,28.25,176,176,0,0,0-6.34,30v.15a191.86,191.86,0,0,0-.74,30.63,181.56,181.56,0,0,0,4.47,31c1.14,4.94,2.49,9.94,4,14.88.67,2.22,1.4,4.36,2.1,6.43l.26.77,0,.08,0,.08,2.19,6.2c2.4,7.23,4.88,14.7,6.76,22.24s3.75,15.36,5.33,23.15c1.43,7.52,2.71,15.33,3.79,23.22.41,3.4.73,6.42,1,9.23a219.63,219.63,0,0,1,.6,36.52l0,.32v.32c0,1.49-.16,3.55-.3,5.73-.1,1.69-.22,3.44-.3,5.21v.09l-.1,2.38v.09c0,.86-.06,1.71-.08,2.54h-28.49v72.09h28.66V1082a16.87,16.87,0,0,0,21.88,16.26,6,6,0,0,1,1.76-.26,5.86,5.86,0,0,1,4.26,1.81,16.67,16.67,0,0,0,24.08,0,5.92,5.92,0,0,1,6.18-1.49,16.37,16.37,0,0,0,21.72-15.49V935.57h33.16V863.48h-32.28c0-1.91.07-3.51.15-5.54.06-1.78.14-3.81.2-6.48,0-1.09.06-2.21.1-3.34.12-3.94.24-8,.16-12.14v-.23c-.19-4.88-.51-9.86-1-15.25l0-.33,0-.34c-.09-.62-.17-1.26-.25-1.89s-.19-1.43-.29-2.14c-.5-3.88-1-7.43-1.65-10.82-.77-4.55-1.81-8.93-2.81-13.17l-.22-1c0-.1,0-.2-.07-.3l0-.25-.13-.49c-5.49-21.48-13.8-41.24-20.43-56-4.42-9.78-8.6-18.38-12.8-26.32l0-.07,0-.07-3.09-5.66c-.9-1.68-1.75-3.27-2.53-4.85l0,0,0,0c-1.56-3.12-3.05-6.39-4.55-10a123.14,123.14,0,0,1-6.45-20.49,137.73,137.73,0,0,1-3.08-22,127.37,127.37,0,0,1,.89-22.14,109.46,109.46,0,0,1,4.9-21.64l.1-.3.08-.29a64.54,64.54,0,0,1,2.65-7c.41-1,.81-1.93,1.21-2.9l1.49-3a69,69,0,0,1,3.49-6.64l.2-.32.18-.33c3.66-6.74,8.56-13.14,13.27-19.12a16.53,16.53,0,0,0-12.93-26.8Z"/><path class="a" d="M2434.89,1100.52a7.89,7.89,0,0,1-6.5-3.4,11.91,11.91,0,0,0-19-.78,8.22,8.22,0,0,1-12.73,0,11.52,11.52,0,0,0-8.84-4.36h-.23a11.74,11.74,0,0,0-9.49,4.44,8,8,0,0,1-6.78,3.61h0a8.29,8.29,0,0,1-7.3-4.32c-1.29-2.3-2.75-3.35-8.39-3.69a8.64,8.64,0,0,1-4.82-1.81c-14.65-11.5-25.17-27.16-31.27-46.54-4.59-14.19-6.82-38.89-6.82-75.49V869.47h68.49V982.73c0,20.1,1.34,34.06,4,41.49,2.47,7,6.28,12.23,11.66,16s11.92,5.65,20,5.65,14.78-1.83,20.31-5.61,9.48-9.19,12.21-16.65c1.43-3.92,3.13-13.9,3.13-39.08V869.47h67.88V969.83c0,40.09-3.17,67-9.7,82.19-7.95,18.52-19.88,33-35.44,42.91-1.39.89-2.85,1.76-4.46,2.64a9.13,9.13,0,0,1-4.36,1.12,9,9,0,0,1-6.6-2.89,11.64,11.64,0,0,0-8.66-3.81,11.92,11.92,0,0,0-9.79,5.13A7.92,7.92,0,0,1,2434.89,1100.52Z"/><path class="b" d="M2514.41,875.47v94.36q0,58.33-9.21,79.83-11.26,26.21-33.16,40.22-2,1.27-4.12,2.43a3.1,3.1,0,0,1-1.47.38,3,3,0,0,1-2.18-1,17.71,17.71,0,0,0-13.08-5.75,17.9,17.9,0,0,0-14.73,7.71,1.91,1.91,0,0,1-3.14,0,17.9,17.9,0,0,0-28.55-1.17,2.25,2.25,0,0,1-1.74.82,2.22,2.22,0,0,1-1.73-.82,17.52,17.52,0,0,0-13.47-6.55h-.35a17.85,17.85,0,0,0-14.3,7,2,2,0,0,1-1.85,1.07,2.25,2.25,0,0,1-2-1.17c-2.89-5.17-7.08-6.45-13.3-6.83a2.68,2.68,0,0,1-1.49-.54q-20.54-16.12-29.24-43.62-6.56-20.27-6.55-73.69V875.47h56.49V982.73q0,31.32,4.31,43.49a38,38,0,0,0,13.85,18.94q9.54,6.75,23.5,6.75t23.69-6.65q9.75-6.65,14.47-19.55,3.49-9.62,3.49-41.14V875.47h55.88m12-12h-79.88v121.1c0,26.54-1.94,34.75-2.77,37-2.28,6.21-5.53,10.72-10,13.73s-10,4.56-16.93,4.56-12.24-1.49-16.56-4.55-7.43-7.36-9.48-13.14c-1.65-4.67-3.62-15.31-3.62-39.49V863.47h-80.49V968.19c0,37.19,2.32,62.48,7.11,77.33,6.47,20.54,17.67,37.17,33.28,49.42a14.62,14.62,0,0,0,8.15,3.08,15.62,15.62,0,0,1,3.42.46l.13.21a14.25,14.25,0,0,0,12.51,7.35,14,14,0,0,0,11.54-5.93,5.82,5.82,0,0,1,4.86-2.13h.1a5.64,5.64,0,0,1,4.2,2.17,14.23,14.23,0,0,0,22,0,5.86,5.86,0,0,1,4.56-2.16,5.93,5.93,0,0,1,4.87,2.55,13.92,13.92,0,0,0,22.87,0,5.9,5.9,0,0,1,4.86-2.55,5.73,5.73,0,0,1,4.25,1.88,15,15,0,0,0,11,4.82,15.18,15.18,0,0,0,7.24-1.86c1.72-.94,3.3-1.87,4.82-2.84,16.59-10.62,29.28-26,37.71-45.59,6.86-16,10.19-43.65,10.19-84.57V863.47Z"/><path class="a" d="M2630.45,1101.13a7.17,7.17,0,0,1-6.15-3.44,11.92,11.92,0,0,0-20.21-.2,7.42,7.42,0,0,1-12.51,0,11.87,11.87,0,0,0-10-5.5,10.1,10.1,0,0,0-1.85.17,7.81,7.81,0,0,1-1.28.11,7.31,7.31,0,0,1-7.31-7.3V869.47H2631v13.81a58.82,58.82,0,0,1,11.35-9.94,56,56,0,0,1,31.57-9.6c8.11,0,16.63,2.13,25.33,6.33l4.88,2.35L2682.58,932l-6-3c-7.07-3.54-11.24-4.28-13.49-4.28-6.3,0-11.72,4.21-16.55,12.89-3.72,6.66-8.15,22.41-8.15,59.66l.21,10.9v84.2a8.05,8.05,0,0,1-1.56,4.77c-.16.22-.32.45-.47.69A7.17,7.17,0,0,1,2630.45,1101.13Z"/><path class="b" d="M2673.91,869.74q10.85,0,22.72,5.73l-17.39,48.1q-9.84-4.91-16.18-4.91-12.89,0-21.79,16t-8.91,62.64l.21,10.85v84.2a2.13,2.13,0,0,1-.42,1.25c-.24.33-.46.67-.68,1a1.21,1.21,0,0,1-2,0,17.92,17.92,0,0,0-30.38-.3,1.41,1.41,0,0,1-1.21.67,1.4,1.4,0,0,1-1.2-.67,17.91,17.91,0,0,0-15.1-8.26,16.18,16.18,0,0,0-2.89.26l-.24,0a1.31,1.31,0,0,1-1.31-1.3V875.47H2625v28q7.78-16.57,20.68-25.18a49.93,49.93,0,0,1,28.24-8.59m0-12a61.91,61.91,0,0,0-34.9,10.61c-.68.45-1.35.92-2,1.4v-6.28h-71.9V1085a13.32,13.32,0,0,0,13.31,13.3,13.77,13.77,0,0,0,2.31-.2,4.27,4.27,0,0,1,.82-.08,5.89,5.89,0,0,1,5,2.73,13.42,13.42,0,0,0,22.63,0,5.91,5.91,0,0,1,10,.1,13.22,13.22,0,0,0,22.43.17l.26-.39a14.09,14.09,0,0,0,2.7-8.29v-84.43l-.2-10.73c0-37.81,4.63-51.74,7.39-56.68,5.47-9.81,9.87-9.81,11.31-9.81,1.06,0,4.22.35,10.81,3.65l12.06,6,4.59-12.68,17.4-48.11,3.68-10.18-9.75-4.71c-9.52-4.59-18.92-6.92-27.94-6.92Z"/><path class="a" d="M2858.59,1101.36a7,7,0,0,1-6-3.46,11.92,11.92,0,0,0-20.42-.26,7.26,7.26,0,0,1-12.34,0,11.93,11.93,0,0,0-18.56-2.16,7.55,7.55,0,0,1-5.39,2.23,7.69,7.69,0,0,1-3.43-.81,114.93,114.93,0,0,1-30.21-21.83c-23-23.1-34.71-52.38-34.71-87,0-35.41,11.63-65.28,34.56-88.8s52.13-35.48,86.68-35.48c36.57,0,66.8,11.94,89.86,35.47s34.67,54.85,34.67,93.11l-.35,16.64H2795a51.68,51.68,0,0,0,17.18,27.17c10.14,8.39,23.35,12.65,39.28,12.65,19.43,0,35.66-6.62,49.63-20.23l3-2.9,57.32,26.93-4.12,5.85c-10.39,14.75-22.76,26.43-36.78,34.74a7.71,7.71,0,0,1-3.93,1.07,8,8,0,0,1-3.67-.91,11.5,11.5,0,0,0-5.41-1.34,11.82,11.82,0,0,0-10.25,5.85,7,7,0,0,1-12.11,0,11.89,11.89,0,0,0-20.5.07A7,7,0,0,1,2858.59,1101.36ZM2902.5,953a50.42,50.42,0,0,0-16.65-19.43c-9.94-7.1-21.16-10.55-34.31-10.55-14.17,0-26.77,4-37.44,11.92-5,3.69-9.8,9.74-14.38,18.06Z"/><path class="b" d="M2848.76,869.76q52.63,0,85.58,33.66t32.95,88.91l-.22,10.65H2787.56q3.89,23.76,20.77,37.77t43.11,14q31.29,0,53.82-21.93l47.09,22.12q-15,21.23-34.94,33a1.65,1.65,0,0,1-.87.24,1.9,1.9,0,0,1-.87-.22,17.57,17.57,0,0,0-8.21-2,17.85,17.85,0,0,0-15.41,8.8,1,1,0,0,1-1.78,0,17.88,17.88,0,0,0-30.85.07.95.95,0,0,1-1.66,0,17.92,17.92,0,0,0-30.7-.39,1.27,1.27,0,0,1-1.07.59,1.24,1.24,0,0,1-1.07-.59,17.93,17.93,0,0,0-27.9-3.24,1.65,1.65,0,0,1-1.9.29,108.3,108.3,0,0,1-28.64-20.7q-32.94-33-33-82.8,0-50.94,32.86-84.61t82.38-33.66M2790,959h121.19a56.25,56.25,0,0,0-21.86-30.31Q2873,917,2851.54,917c-15.59,0-29.27,4.4-41,13.1Q2799.46,938.3,2790,959m58.74-101.23c-36.23,0-66.83,12.54-91,37.28s-36.27,56-36.27,93c0,36.3,12.27,67,36.46,91.27a120.65,120.65,0,0,0,31.79,23,13.71,13.71,0,0,0,6.1,1.44,13.56,13.56,0,0,0,9.64-4,5.93,5.93,0,0,1,9.21,1.08,13.26,13.26,0,0,0,22.54,0,5.92,5.92,0,0,1,10.14.13,13,13,0,0,0,22.38,0,5.87,5.87,0,0,1,5.11-2.93,5.76,5.76,0,0,1,5,2.87,13,13,0,0,0,22.46,0,5.83,5.83,0,0,1,5.08-2.9,5.55,5.55,0,0,1,2.63.66,14,14,0,0,0,6.45,1.59,13.7,13.7,0,0,0,7-1.91c14.75-8.74,27.75-21,38.63-36.45l8.24-11.69-13-6.08L2910.36,1022l-7.52-3.54-6,5.8c-12.8,12.47-27.67,18.53-45.45,18.53-14.69,0-26.29-3.69-35.46-11.28a44.93,44.93,0,0,1-12.53-16.53h175.36l.25-11.75.23-10.64v-.26c0-39.89-12.24-72.62-36.38-97.3s-55.91-37.27-94.15-37.27ZM2810.67,947a35.5,35.5,0,0,1,7-7.24c9.75-7.23,20.83-10.74,33.87-10.74,11.85,0,21.94,3.09,30.83,9.44a47.94,47.94,0,0,1,9.23,8.54Z"/><path class="a" d="M1364.49,1102.1a6.53,6.53,0,0,1-5.77-3.49,11.77,11.77,0,0,1-1.34-5.38V510.31a64.42,64.42,0,0,1-21.88,3.56c-17.61,0-31.71-5.4-41.88-16.05s-15.25-23.12-15.25-37.36a52.79,52.79,0,0,1,28.2-47.08,64.46,64.46,0,0,1,50.81-3.36V275.12h67.89V410.41a64.39,64.39,0,0,1,51.85,3,52.84,52.84,0,0,1,28.17,47.08c0,14.22-5.12,26.79-15.22,37.36s-24.27,16.05-41.88,16.05a63.79,63.79,0,0,1-22.92-3.94V1085.7a7,7,0,0,1-7,7,6.74,6.74,0,0,1-1.89-.26,11.49,11.49,0,0,0-3.17-.44,11.93,11.93,0,0,0-10.27,5.9,7,7,0,0,1-12.06,0,11.84,11.84,0,0,0-10.24-5.88c-4.83,0-8.52,2.28-10.41,6.41l-.09.2-.1.19A6.34,6.34,0,0,1,1364.49,1102.1Zm26.84-302.71a13.86,13.86,0,1,0,0,27.72c.47,0,1,0,1.43-.07a14,14,0,0,0,12.35-12.36,13.86,13.86,0,0,0-13.78-15.29Z"/><path class="b" d="M1419.27,281.12v139a40.39,40.39,0,0,1,4.08-2.33l.19-.1a53.64,53.64,0,0,1,24.29-5.4,55,55,0,0,1,26.46,6.34,46.86,46.86,0,0,1,25,41.79q0,19-13.55,33.21t-37.55,14.2c-9.35,0-17.6-1.74-24.71-5.27a41.23,41.23,0,0,1-4.21-2.36V1085.7a1,1,0,0,1-1,1,.84.84,0,0,1-.27,0,17.85,17.85,0,0,0-20.24,8.22,1,1,0,0,1-1.69,0,17.81,17.81,0,0,0-15.43-8.87,16.82,16.82,0,0,0-15.87,9.93.32.32,0,0,1-.29.17.54.54,0,0,1-.44-.23,5.81,5.81,0,0,1-.67-2.64V500.85a44.14,44.14,0,0,1-4.17,2.24,55.75,55.75,0,0,1-23.71,4.78q-24,0-37.55-14.2t-13.58-33.21a46.82,46.82,0,0,1,25-41.79,54.81,54.81,0,0,1,26.43-6.34,53.74,53.74,0,0,1,22.54,4.59,19,19,0,0,1,1.78.81,31,31,0,0,1,3.23,1.81V281.12h55.89m-27.94,552c.67,0,1.34,0,2-.1a19.89,19.89,0,1,0-2,.1m39.94-564h-79.89V402a70.72,70.72,0,0,0-15.55-1.67,66.9,66.9,0,0,0-32.12,7.78,58.78,58.78,0,0,0-31.34,52.35c0,15.84,5.69,29.81,16.92,41.52,11.34,11.87,26.9,17.89,46.21,17.89a75.12,75.12,0,0,0,15.88-1.62v575a17.82,17.82,0,0,0,2,8.13,12.61,12.61,0,0,0,11.11,6.74,12.32,12.32,0,0,0,10.82-6.42l.21-.38.18-.4c.89-2,2.51-2.9,5-2.9a5.76,5.76,0,0,1,5,2.89,13,13,0,0,0,22.43,0,5.82,5.82,0,0,1,5.09-2.93,5.58,5.58,0,0,1,1.55.22,13,13,0,0,0,16.5-12.52V518a74.74,74.74,0,0,0,16.92,1.85c19.31,0,34.87-6,46.22-17.91,11.2-11.72,16.88-25.68,16.88-41.5A58.83,58.83,0,0,0,1480,408.11a67.1,67.1,0,0,0-32.15-7.78,70.27,70.27,0,0,0-16.56,1.91V269.12Zm-39.94,552a7.77,7.77,0,0,1-5.83-2.59,7.86,7.86,0,0,1,5-13.09,8.19,8.19,0,0,1,.85,0h0a7.87,7.87,0,0,1,7.81,8.7,7.9,7.9,0,0,1-7,7c-.28,0-.57,0-.84,0Z"/><path class="c" d="M1426.82,355.2a39,39,0,0,1-33.66-19.44c-.52-.89-1.05-1.9-1.59-3-.47.91-.91,1.73-1.34,2.46A38.83,38.83,0,1,1,1323,296.41a106.16,106.16,0,0,1,8.17-11.51,111.73,111.73,0,0,1-13.71,1.72c-.56,0-1.14,0-1.71,0A38.83,38.83,0,0,1,1314,209c.62,0,1.3,0,2,0a140.91,140.91,0,0,1,15.59,1.13,119.52,119.52,0,0,1-7.9-11.39A38.85,38.85,0,1,1,1391,159.89c.73,1.28,1.54,2.86,2.4,4.7.78-1.6,1.52-3,2.19-4.17a38.84,38.84,0,1,1,67.27,38.83,100.72,100.72,0,0,1-7.7,10.92,119.71,119.71,0,0,1,14.23-1.19,38.85,38.85,0,0,1,0,77.69,119.19,119.19,0,0,1-17.42-1.84,122.34,122.34,0,0,1,8.43,12.1,38.86,38.86,0,0,1-33.61,58.27Z"/><path class="b" d="M1357.36,146.46a32.81,32.81,0,0,1,28.47,16.44,126.77,126.77,0,0,1,7.46,17.16,135.13,135.13,0,0,1,7.53-16.65,32.83,32.83,0,1,1,56.87,32.83c-2.74,4.77-9.26,13.21-17.49,22.43,12.54-2.37,23.57-3.69,29.22-3.69a32.85,32.85,0,0,1,0,65.69c-6.15,0-18.67-1.8-32.58-4.9,8.59,10,15.51,19.16,18.39,24.16a32.83,32.83,0,1,1-56.87,32.83,113.13,113.13,0,0,1-6.66-15,124.46,124.46,0,0,1-6.66,14.49,32.83,32.83,0,1,1-56.87-32.83c2.88-5,10-14.12,18.83-23.92-12.76,3-24.06,4.9-29.81,5.14l-1.47,0a32.83,32.83,0,0,1-1.44-65.63c.55,0,1.14,0,1.78,0,6.42,0,17.56,1.16,29.91,3.29-8-9.33-14.29-17.82-17-22.56a32.85,32.85,0,0,1,28.42-49.27m0-12a44.85,44.85,0,0,0-38.82,67.26q.38.65.81,1.35c-1.17,0-2.27-.07-3.29-.07-.81,0-1.58,0-2.3,0a44.83,44.83,0,0,0,2,89.62c.66,0,1.33,0,2-.05l.54,0-.49.82A44.83,44.83,0,0,0,1391.49,344a44.83,44.83,0,0,0,74.14-50c-.27-.47-.56-1-.88-1.47,1.74.14,3.31.2,4.67.2a44.85,44.85,0,0,0,0-89.69l-1.79,0,.46-.77a44.83,44.83,0,0,0-74.57-49.48,45,45,0,0,0-36.16-18.3Z"/><circle class="d" cx="1394.2" cy="247.83" r="42.68"/><path class="b" d="M1394.2,211.15a36.68,36.68,0,1,1-36.68,36.68,36.68,36.68,0,0,1,36.68-36.68m0-12a48.68,48.68,0,1,0,48.67,48.68,48.73,48.73,0,0,0-48.67-48.68Z"/><path class="a" d="M2207.75,559a8.4,8.4,0,0,1-8.16-6.4,29.81,29.81,0,0,0-3.2-7.25,80.11,80.11,0,0,0-5.11-7.76l-.07-.09a8.13,8.13,0,0,1,1.67-11.37,8.12,8.12,0,0,1,11.2,1.47,97.43,97.43,0,0,1,5.71,8,45.31,45.31,0,0,1,5.52-3.35,43.47,43.47,0,0,1,6.19-2.62,9.09,9.09,0,0,1,2.88-.46,9.2,9.2,0,0,1,2.88,17.94l-.62.18-.15,0a27.3,27.3,0,0,0-7.09,3,11.53,11.53,0,0,0-4.16,4l-.07.13A8.38,8.38,0,0,1,2207.75,559Z"/><path class="b" d="M2197.71,530.54a2.12,2.12,0,0,1,1.67.8,88.82,88.82,0,0,1,6.09,8.66c1,1.65,2,3.33,2.81,5.12a19.3,19.3,0,0,0-2.71,4.37l4.53.43a31.8,31.8,0,0,0-1.82-4.8,25.78,25.78,0,0,1,4.9-4.57,38.11,38.11,0,0,1,4.87-3,37,37,0,0,1,5.33-2.26,3.2,3.2,0,0,1,4,2,3.2,3.2,0,0,1-2,4l-.2.06-.18,0a32.16,32.16,0,0,0-4.47,1.55,33.47,33.47,0,0,0-4.26,2.18,17.45,17.45,0,0,0-6.33,6.36l-.07.13a2.4,2.4,0,0,1-3.25,1,2.44,2.44,0,0,1-1.21-1.56,35.6,35.6,0,0,0-3.81-8.78,87.43,87.43,0,0,0-5.5-8.37l-.08-.1a2.11,2.11,0,0,1,1.69-3.38m0-12h0a14.11,14.11,0,0,0-11.33,22.53l.08.11a72.56,72.56,0,0,1,4.73,7.18,24.64,24.64,0,0,1,2.56,5.64v0a14.41,14.41,0,0,0,26.72,3.3l.06-.12a6,6,0,0,1,2-1.78,22.09,22.09,0,0,1,2.66-1.35,20.23,20.23,0,0,1,2.72-1l.16,0h.08c.33-.08.66-.18,1-.28a15.2,15.2,0,0,0-4.78-29.63,15.39,15.39,0,0,0-4.76.76,50.6,50.6,0,0,0-7,2.94l0,0,0,0c-.36.18-.71.37-1.06.56-.87-1.19-1.77-2.38-2.72-3.57a14,14,0,0,0-11.08-5.36Z"/><path class="e" d="M2395.69,662.74c-45.06,0-88.25-18.88-128.35-56.1a308.08,308.08,0,0,1-50.55-61q-.57-.89-1-1.62c-1-1.72-1.55-2.64-1.55-2.64l-2.45-4.22,3.64-3.26s1.17-1.06,3.29-2.8a307.16,307.16,0,0,1,65.41-40.91c31.08-14.32,61.58-21.58,90.63-21.58,68.65,0,126.22,39.83,171.13,118.39l2.38,4.18-3.55,3.24C2495,639.75,2444.84,662.74,2395.69,662.74Z"/><path class="b" d="M2374.74,474.62c54.8,0,115.32,26.85,165.92,115.37-53.82,49-102.6,66.75-145,66.75-51.9,0-94.16-26.54-124.28-54.49a302.64,302.64,0,0,1-49.58-59.85c-.35-.52-.66-1-.92-1.45-1-1.67-1.51-2.57-1.51-2.57s1.06-1,3.11-2.64a301.74,301.74,0,0,1,64.09-40.09c25.2-11.61,55.66-21,88.13-21m0-12v0c-29.93,0-61.27,7.44-93.15,22.13a313.83,313.83,0,0,0-66.75,41.76c-2.13,1.76-3.31,2.81-3.43,2.92l-7.28,6.52,4.9,8.45s.54.93,1.57,2.67l0,0v0c.38.63.75,1.21,1.11,1.76a314.32,314.32,0,0,0,51.53,62.17c18.09,16.79,37.23,30.16,56.87,39.71,24.51,11.93,49.93,18,75.56,18,50.68,0,102.17-23.51,153-69.88l7.11-6.48-4.77-8.34c-24.52-42.9-53.26-74.89-85.42-95.09a168.53,168.53,0,0,0-90.92-26.33Z"/><path class="f" d="M2448.32,574.44l-7-4.39-3.25-2-3.4-1.74L2420.27,559c-.86-.41-1.71-.86-2.56-1.3a35.63,35.63,0,0,0-4.12-2l-.2-.08-7.46-3c-1.95-.76-4-1.57-6-2.38-2.82-1.13-5.73-2.31-8.59-3.37l-15-4.55c-1.05-.29-2.05-.6-3-.91a38.76,38.76,0,0,0-4.12-1.14L2353.55,537l-3.72-.82q-.93-.14-1.86-.24c-.6-.07-1.21-.14-1.81-.23l-15.49-2c-2.92-.23-5.92-.39-8.83-.53-2.24-.12-4.49-.23-6.73-.38l-3.7-.18-3.76.08-8.15.15h-.63c-3.83,0-7.69.34-11.78.71l-2.94.26a231.72,231.72,0,0,0-30.92,5,179.18,179.18,0,0,0-29,9.21l-4.59,2-2.77-4.16c-.41-.61-.77-1.19-1.08-1.7-1-1.72-1.55-2.64-1.55-2.64l-2.45-4.22,3.64-3.26s1.17-1.06,3.29-2.8l.77-.64.93-.35c18.79-7.07,39.34-11.35,62.83-13.07,1.13-.06,2.18-.13,3.22-.2,3.6-.22,7.32-.46,11.05-.46.79,0,1.58,0,2.36,0l12.19.07,4.21.33c2,.18,4,.32,5.95.47,3.31.25,6.74.51,10.14.87h.15l16.08,2.5,1.39.22c.83.13,1.78.27,2.76.48l4,.92,7.81,1.87,7.73,1.88a52,52,0,0,1,5.64,1.69c.81.28,1.62.56,2.43.81l15.51,5.12.17.07c3.22,1.28,6.42,2.66,9.51,4q2.73,1.18,5.48,2.34l7.38,3.19a43.69,43.69,0,0,1,5.35,2.65c.77.42,1.53.84,2.31,1.23l14.53,7.85,3.8,2,3.69,2.42,6.9,4.51,13.83,9.1-6.47,10.1Z"/><path class="b" d="M2297.5,522.39l2.26,0,8,.05,4,0,4,.31c5.32.46,10.64.77,15.95,1.32l15.78,2.45c1.29.24,2.62.38,3.94.66l3.88.91,7.77,1.86,7.77,1.88c2.6.57,5.11,1.61,7.65,2.39l15.24,5c5,2,9.92,4.22,14.88,6.31l7.43,3.21a78.31,78.31,0,0,1,7.24,3.69l14.38,7.75,3.58,1.92,3.46,2.27,6.92,4.52,13.81,9.08-14-8.7-7-4.38-3.5-2.15-3.62-1.84-14.48-7.35c-2.44-1.18-4.79-2.61-7.29-3.52l-7.46-3c-5-1.94-9.92-4-14.92-5.88L2378,536.58c-2.55-.69-5-1.67-7.65-2.17l-7.78-1.66-7.76-1.66-3.86-.85c-1.32-.21-2.63-.32-3.93-.51l-15.71-2.06c-5.28-.43-10.57-.58-15.85-.93l-4-.19-4,.09-8,.14h-.68c-5.08,0-10.17.56-15.24,1a239.29,239.29,0,0,0-31.76,5.09,188.48,188.48,0,0,0-30,9.54c-.35-.52-.66-1-.92-1.45-1-1.67-1.51-2.57-1.51-2.57s1.06-1,3.11-2.64c20.27-7.63,40.72-11.21,61.14-12.7,4.63-.27,9.24-.65,13.84-.65m0-12c-3.92,0-7.74.24-11.42.47l-3.11.2h-.18c-24.06,1.76-45.16,6.16-64.5,13.44l-1.87.7-1.54,1.27c-2.17,1.79-3.35,2.84-3.47,2.95l-7.28,6.52,4.9,8.45s.54.93,1.57,2.67l0,0v0c.43.71.83,1.34,1.23,2l5.54,8.3,9.17-3.94a174.13,174.13,0,0,1,28-8.88,226.75,226.75,0,0,1,30-4.82l3-.27c3.95-.35,7.68-.68,11.25-.68h.9l8-.15,3.6-.07,3.43.16c2.28.15,4.56.27,6.76.38,2.94.15,5.73.29,8.51.51l15.35,2,1.89.24c.52.06,1,.12,1.46.19l3.48.76h.08l7.75,1.66,7.78,1.66.13,0,.13,0a33.48,33.48,0,0,1,3.44,1c.95.29,2,.63,3.15.94l14.74,4.47c2.72,1,5.42,2.11,8.27,3.26,2,.79,4,1.61,6.07,2.41l7.38,3,.2.09.21.07a30.63,30.63,0,0,1,3.37,1.62c.85.45,1.72.91,2.68,1.37l14.38,7.3,3.18,1.61,3,1.87,6.92,4.35,14,8.72L2472.06,568l-13.81-9.08-7-4.54-3.43-2.25-.46-.3-.48-.26-3.55-1.9L2429,542l-.15-.09-.15-.07c-.64-.33-1.35-.72-2.1-1.13a49.1,49.1,0,0,0-6-2.94l-7.23-3.13-.05,0-.06,0c-1.81-.76-3.62-1.54-5.43-2.32-3.13-1.36-6.36-2.76-9.66-4.07l-.34-.13-.34-.11-15.24-5-.1,0-.11,0c-.69-.21-1.44-.47-2.24-.75a56.94,56.94,0,0,0-6.25-1.87l-7.65-1.85-7.81-1.87h-.07l-3.88-.9-.08,0-.08,0c-1.17-.26-2.23-.41-3.15-.55l-1.21-.19-.15,0-.15,0-15.78-2.45-.3,0-.29,0c-3.49-.37-6.95-.63-10.29-.88-2-.15-3.92-.29-5.88-.46h-.07l-4-.32-.45,0h-.44l-4,0-7.89-.05c-.79,0-1.62,0-2.46,0Z"/><path class="g" d="M2134,551.5c-31.58,0-58.37-8.33-79.63-24.76-27.77-21.47-45.34-56.39-52.21-103.8l-.69-4.76,4.49-1.71c24.5-9.33,47.53-14.06,68.47-14.06,63.15,0,96.8,42.06,113.9,77.35a211.85,211.85,0,0,1,16.94,50.39c.37,1.91.53,3,.53,3l.73,4.82-4.56,1.71-2,.73-1.31.44a212.45,212.45,0,0,1-53.57,10.36c-3.73.22-7.47.34-11.11.34Z"/><path class="b" d="M2074.42,408.41c59.52,0,91.71,39.32,108.5,74a206.13,206.13,0,0,1,16.44,48.91c.35,1.77.5,2.73.5,2.73l-1.91.7-1.12.38a206.61,206.61,0,0,1-52.07,10.08c-3.51.21-7.1.33-10.76.33-49.47,0-111.14-21.55-125.92-123.42,25.21-9.6,47.19-13.67,66.34-13.67m0-12c-21.67,0-45.43,4.86-70.61,14.46l-9,3.42,1.38,9.51c7.11,49,25.44,85.24,54.48,107.68,22.34,17.26,50.36,26,83.31,26,3.76,0,7.63-.12,11.49-.36a218.09,218.09,0,0,0,55-10.64c.47-.14.94-.3,1.45-.48h.06l2-.74,9.14-3.42-1.48-9.65c0-.13-.2-1.26-.58-3.21a217.76,217.76,0,0,0-17.42-51.85c-10.9-22.49-24.87-40.68-41.5-54.08-22-17.67-48.14-26.64-77.8-26.64Z"/><path class="f" d="M2191.5,537.84a120.78,120.78,0,0,0-11.13-17.13,156.45,156.45,0,0,0-14-15.8l-1.46-1.43c-2.07-2-4-4-6.1-5.63l-4.26-3.63-1.92-1.64-2-1.46c-1.25-.89-2.48-1.8-3.71-2.72-1.65-1.22-3.21-2.37-4.81-3.49l-9.05-5.63c-.31-.19-.68-.42-1-.66l-1-.61-2.24-1.14-9.78-5.06a26.09,26.09,0,0,0-2.47-1.09c-.67-.27-1.35-.54-2-.84l-9.81-4.06c-1.93-.66-4-1.3-5.9-1.92-1.42-.44-2.84-.89-4.26-1.36l-5.27-1.65-.1,0a21.25,21.25,0,0,0-2.75-.68c-.66-.14-1.32-.28-2-.44l-13.22-2.92-2.54-.35-5.51-.71-11.16-1.46,1.42-11.91,11.21,1.19,5.63.62,3.06.33,3,.59,11.08,2.17,1.68.33a31.53,31.53,0,0,1,4.19,1l5.2,1.49,4,1.15c2.22.64,4.51,1.3,6.79,2l.17.06,10.48,4.05c.52.21,1,.41,1.57.6a40.56,40.56,0,0,1,3.9,1.63l4.86,2.35,4.92,2.39,2.47,1.23c.74.37,1.33.72,1.85,1,.26.15.52.31.78.45l9.64,5.7.13.08c2,1.3,3.89,2.65,5.75,4,1.1.77,2.21,1.55,3.32,2.31l2.45,1.71,6.49,5.28c2.52,1.94,4.8,4.07,7,6.13l1.57,1.45c11.83,11.27,20.93,22.57,27.87,34.6l.5.87.19,1c.38,1.93.54,3,.54,3l.73,4.82-4.56,1.71-2,.73-1.42.47-4.77,1.44Z"/><path class="b" d="M2052.91,448.35l11.22,1.2,5.61.61,2.8.3,2.72.55,10.95,2.13c1.81.41,3.68.62,5.41,1.19l5.31,1.53c3.52,1.05,7.08,2,10.58,3.12l10.21,3.95c1.69.68,3.46,1.23,5.08,2.05l4.91,2.37,4.91,2.39,2.43,1.2c.82.42,1.58.92,2.37,1.36l9.38,5.55c3,2,6,4.14,9,6.21l2.24,1.56,2.12,1.72,4.26,3.46c2.88,2.23,5.52,4.8,8.22,7.29,10.12,9.64,19.36,20.38,26.74,33.19.35,1.77.5,2.73.5,2.73l-1.91.7-1.12.38A128.22,128.22,0,0,0,2185.12,517a163.11,163.11,0,0,0-14.54-16.44c-2.6-2.53-5.15-5.15-8-7.42l-4.13-3.52-2.06-1.77-2.17-1.61c-2.94-2.11-5.79-4.32-8.76-6.38l-9.18-5.72c-.77-.46-1.51-1-2.3-1.43l-2.4-1.22L2126.8,469l-4.82-2.49c-1.59-.87-3.33-1.43-5-2.18L2107,460.2c-3.45-1.18-6.95-2.22-10.42-3.36l-5.24-1.64c-1.71-.6-3.57-.86-5.37-1.3l-10.82-2.4-2.71-.59-2.77-.39-5.57-.71-11.14-1.46m1.27-11.93-2.83,23.83,11.14,1.46,5.55.71,2.25.31,2.23.49,10.7,2.37c.75.18,1.46.33,2.09.46a19.17,19.17,0,0,1,2,.47l.21.07.21.06,5.16,1.62,4.26,1.36c1.94.61,3.77,1.19,5.57,1.8l9.55,4c.78.35,1.51.64,2.16.9s1.45.58,1.83.79l.11.06.12.06,4.82,2.5,4.81,2.48,0,0,0,0,2,1,.65.41c.38.25.77.49,1.16.73l8.87,5.53c1.48,1,3,2.14,4.54,3.3,1.21.89,2.46,1.82,3.74,2.74l1.75,1.3,1.74,1.49,4.17,3.55.13.11.13.11c1.84,1.48,3.69,3.3,5.65,5.22l1.47,1.45a150.24,150.24,0,0,1,13.41,15.17,115.61,115.61,0,0,1,10.56,16.23l4.59,8.87,9.55-2.9c.53-.16,1.08-.34,1.66-.55h.06l2-.74,9.14-3.42-1.48-9.65c0-.13-.2-1.26-.58-3.21l-.38-2-1-1.73c-7.23-12.53-16.67-24.27-28.87-35.88l-.07-.06-.06-.07c-.52-.47-1-.95-1.54-1.43-2.29-2.13-4.66-4.34-7.37-6.44l-4.14-3.37-2.12-1.72-.35-.29-.36-.25-2.24-1.56,0,0,0,0-3.26-2.27c-1.9-1.33-3.86-2.71-5.9-4.06l-.25-.16-.26-.16-9.38-5.54-.13-.08-.13-.07-.63-.37c-.56-.34-1.27-.76-2.12-1.19l-.07,0-.07,0-2.44-1.21h0l0,0-4.91-2.39-4.85-2.34a42.28,42.28,0,0,0-4.46-1.87l-1.4-.53-.1,0-.1,0-10.21-3.95-.34-.13-.34-.11c-2.36-.76-4.7-1.43-7-2.08-1.28-.37-2.56-.73-3.84-1.11l-.06,0-.06,0-5.11-1.46a37.61,37.61,0,0,0-4.84-1.14c-.54-.1-1.05-.2-1.45-.29l-.17,0-.17,0-10.91-2.13-2.69-.54-.54-.1-.54-.06-2.81-.3-5.57-.61-11.26-1.2Z"/><path class="a" d="M202,496h55.88v222.7H202V695.19q-16.37,15.55-32.82,22.41a91.83,91.83,0,0,1-35.67,6.86q-43.14,0-74.63-33.47t-31.48-83.2q0-51.59,30.46-84.54t74-32.95a94.08,94.08,0,0,1,37.62,7.57A102.76,102.76,0,0,1,202,520.59Zm-58.75,45.85q-25.91,0-43,18.32t-17.14,47q0,28.88,17.44,47.49t42.95,18.63q26.31,0,43.65-18.32t17.34-48q0-29.07-17.34-47.08T143.24,541.88Z"/><path class="a" d="M450.68,527.14l-34.59,34.59Q395,540.85,377.81,540.86q-9.4,0-14.73,4t-5.33,9.93a12.19,12.19,0,0,0,3.38,8.29q3.38,3.8,16.68,10.34l20.47,10.23q32.34,16,44.42,32.55t12.08,38.89q0,29.68-21.8,49.53t-58.44,19.86q-48.72,0-77.78-38.07l34.38-37.46a79.35,79.35,0,0,0,23,18.52q13.2,7.06,23.44,7.07,11.06,0,17.81-5.33t6.75-12.28q0-12.88-24.36-25.18L359,622.32q-54-27.23-54-68.16,0-26.4,20.37-45.14T377.4,490.3a90.32,90.32,0,0,1,73.28,36.84Z"/><path class="a" d="M554.25,496v24.56A105.15,105.15,0,0,1,587,497.87a94.28,94.28,0,0,1,37.67-7.57q43.59,0,74.09,32.95t30.5,84.54q0,49.74-31.52,83.2T623,724.46a92.8,92.8,0,0,1-35.82-6.86q-16.58-6.86-33-22.41v105H498.78V496ZM613,541.88q-26.4,0-43.8,18T551.8,607q0,29.68,17.4,48T613,673.29q25.57,0,43.09-18.63t17.5-47.49q0-28.65-17.2-47T613,541.88Z"/><path class="a" d="M998.63,623.55H819.12Q823,647.3,839.9,661.31t43.08,14q31.32,0,53.84-21.9l47.07,22.11q-17.6,25-42.16,36.94t-58.34,12Q831,724.46,798,691.4t-33-82.8q0-51,32.86-84.63t82.38-33.67q52.6,0,85.56,33.67t33,88.93Zm-55.88-44a56,56,0,0,0-21.84-30.29q-16.29-11.67-37.83-11.67-23.37,0-41,13.1-11.07,8.19-20.5,28.86Z"/><path class="a" d="M1261.86,541.06l-46.52,25.58q-13.11-13.71-25.92-19t-30-5.32q-31.35,0-50.72,18.7t-19.36,47.92q0,28.41,18.65,46.39t49,18q37.5,0,58.4-25.59l44.06,30.17q-35.82,46.59-101.11,46.59-58.76,0-92-34.8T1033,608.2a114.54,114.54,0,0,1,16.17-59.57q16.17-27.21,45.13-42.78t64.79-15.55q33.15,0,59.56,13.2A113,113,0,0,1,1261.86,541.06Z"/><path class="a" d="M500.66,1086A17.92,17.92,0,0,1,517,1096.47a17.87,17.87,0,0,1,32.56,0,18,18,0,0,1,4.73-6.24v-81.54q0-35.82,2.45-45.85,4.71-19.44,16.89-30.7a41.5,41.5,0,0,1,29.17-11.26q13.1,0,22,6.76t12.59,20.46q3.69,13.73,3.68,52.41v88.54a17.94,17.94,0,0,1,6.27,7.39,17.92,17.92,0,0,1,32.6,0A17.92,17.92,0,0,1,696.1,1086V951q0-38.47-19.44-58.34-22.73-22.92-55.88-22.92a84.91,84.91,0,0,0-33.57,7.06q-16.58,7.07-33,21.19V789.5H498.79v296.63A16.63,16.63,0,0,1,500.66,1086Z"/><path class="a" d="M1054.73,1086a17.9,17.9,0,0,1,16.27,10.48,17.86,17.86,0,0,1,29.26-4.87v-83.49l-.2-10.85q0-46.66,8.9-62.63t21.8-16q6.35,0,16.17,4.91l17.4-48.1q-11.88-5.73-22.72-5.73a50,50,0,0,0-28.25,8.59q-12.88,8.61-20.67,25.18v-28h-47.9V1089A17.77,17.77,0,0,1,1054.73,1086Z"/><path class="a" d="M977,928.3a114,114,0,0,0-43.27-42.79,118,118,0,0,0-59.28-15.76q-43.57,0-77.14,30.28Q759,934.82,759,987q0,48.71,33.87,82.8a120.35,120.35,0,0,0,24.22,18.92,17.66,17.66,0,0,1,9.51-2.75,17.88,17.88,0,0,1,16.3,10.51,17.88,17.88,0,0,1,32.57,0,17.92,17.92,0,0,1,32.6,0,17.9,17.9,0,0,1,25.71-7.8,3.42,3.42,0,0,1,.42-.22,113.32,113.32,0,0,0,42.7-42.89,116.92,116.92,0,0,0,15.65-59A114.63,114.63,0,0,0,977,928.3Zm-58.15,105.4c-11.61,12.13-26.2,18.21-43.66,18.21s-32-6-43.37-18-17.14-27.68-17.14-47.05q0-28.29,17.33-46.38t43.37-18.12q26.64,0,43.76,17.92t17.14,46.58Q936.26,1015.46,918.83,1033.7Z"/><path class="a" d="M1218.42,1086A17.86,17.86,0,0,1,1234,1096.5a17.89,17.89,0,0,1,32.6,0,17.83,17.83,0,0,1,7.73-8.3V923.57h33.16v-48.1H1274.3V793.39h-55.88v82.08h-28.66v48.1h28.66Z"/><path class="a" d="M1538.54,1086.72a17.9,17.9,0,0,1,21.35,9.75,17.92,17.92,0,0,1,32.6,0,17.88,17.88,0,0,1,32.57,0,17.86,17.86,0,0,1,32.28-.59l.79-.28A17.84,17.84,0,0,1,1674,1086a17.23,17.23,0,0,1,3.47.37,116.25,116.25,0,0,0,32.14-29l-44.06-30.17q-20.9,25.6-58.41,25.59-30.31,0-49-18t-18.65-46.4q0-29.22,19.36-47.92t50.72-18.7q17.22,0,30,5.32t25.92,19L1712,920.5a113.13,113.13,0,0,0-43.19-37.56q-26.4-13.2-59.56-13.2-35.83,0-64.79,15.56t-45.13,42.77a114.56,114.56,0,0,0-16.17,59.57q0,46.67,33.26,81.47A105,105,0,0,0,1538.54,1086.72Z"/><path class="a" d="M1820.26,1087.53c.89.65,1.86,1.21,2.79,1.82a17.81,17.81,0,0,1,26.66,7.15,17.89,17.89,0,0,1,32.6,0,17.9,17.9,0,0,1,32.61,0,17.87,17.87,0,0,1,16.3-10.51,17.6,17.6,0,0,1,7.29,1.58q19.42-13.8,29.84-37.91,9.21-21.5,9.21-79.83V875.47h-55.88v109.1q0,31.51-3.49,41.14-4.73,12.9-14.46,19.55t-23.7,6.65q-14,0-23.5-6.75a38,38,0,0,1-13.85-18.94q-4.31-12.16-4.31-43.49V875.47h-56.49v92.72q0,53.43,6.55,73.69Q1797.64,1071.16,1820.26,1087.53Z"/><path class="a" d="M2061.56,1086a17.88,17.88,0,0,1,16.3,10.51,17.81,17.81,0,0,1,25.23-8.08V789.5h-55.88v303.79A17.78,17.78,0,0,1,2061.56,1086Z"/><path class="a" d="M2269.34,875.48v48.09h-33.16V1090.3a17.91,17.91,0,0,0-27.94,6.18,17.91,17.91,0,0,0-27.94-6.18V923.57h-28.66V875.48h28.43c-.1-4.69,0-9.38.13-14.13,0-.78.06-1.59.1-2.4.19-4,.55-8.28.61-11.25a232.92,232.92,0,0,0-.61-38.49c-.29-3.27-.65-6.5-1-9.7q-1.65-12-3.91-24c-1.62-8-3.53-15.85-5.47-23.74s-4.53-15.62-7.05-23.22l-2.23-6.31c-.78-2.3-1.55-4.56-2.26-6.89-1.43-4.62-2.69-9.28-3.79-14a169.66,169.66,0,0,1-4.17-28.88,179.89,179.89,0,0,1,.68-28.72,164.06,164.06,0,0,1,5.92-28,139.88,139.88,0,0,1,10.73-26.29c2-4.24,4.76-8.12,7.22-12.07,2.78-3.78,5.33-7.66,8.41-11.12a139.93,139.93,0,0,1,19.34-19.44,4.53,4.53,0,0,1,6.5,6.24c-5.27,6.7-10.42,13.49-14.43,20.86-2.23,3.56-3.88,7.41-5.75,11.09a118.84,118.84,0,0,0-4.47,11.62,121,121,0,0,0-5.43,24,138.16,138.16,0,0,0-1,24.29,149.34,149.34,0,0,0,3.33,24,137.08,137.08,0,0,0,7.08,22.51c1.52,3.65,3.14,7.24,4.92,10.8.87,1.78,1.81,3.53,2.75,5.27l3.1,5.69c4.47,8.45,8.54,17,12.46,25.62,7.76,17.34,14.94,35.25,19.76,54.11,0,.19.09.42.13.61,1.06,4.53,2.16,9.06,2.94,13.65.61,3.43,1.13,6.89,1.58,10.38.2,1.36.36,2.75.55,4.11.42,4.89.75,9.74.94,14.69s-.13,10-.26,15c-.13,5.66-.32,8.38-.35,12.29,0,3.75-.23,7.54-.16,11.39v.61Z"/><path class="a" d="M2355.18,1086a17.84,17.84,0,0,1,15.3,9.18l1.13.47A17.87,17.87,0,0,1,2403,1095a17.91,17.91,0,0,1,31.86,1.43,17.85,17.85,0,0,1,30.8-3c2.19-1.12,4.31-2.31,6.35-3.61q21.9-14,33.16-40.22,9.21-21.5,9.21-79.83V875.47h-55.88v109.1q0,31.51-3.49,41.14-4.73,12.9-14.47,19.55t-23.69,6.65q-14,0-23.5-6.75a38,38,0,0,1-13.85-18.94q-4.31-12.16-4.31-43.49V875.47h-56.49v92.72q0,53.43,6.55,73.69Q2334.09,1069.86,2355.18,1086Z"/><path class="a" d="M2581.53,1086a17.89,17.89,0,0,1,16.3,10.48,17.92,17.92,0,0,1,32.61,0,17,17,0,0,1,2.13-3.46v-84.9l-.21-10.85q0-46.66,8.91-62.63t21.79-16q6.34,0,16.18,4.91l17.39-48.1q-11.87-5.73-22.72-5.73a49.93,49.93,0,0,0-28.24,8.59q-12.9,8.61-20.68,25.18v-28h-47.9v211.11A18.14,18.14,0,0,1,2581.53,1086Z"/><path class="a" d="M2967.29,992.33q0-55.24-32.95-88.91t-85.58-33.67q-49.55,0-82.38,33.67T2733.52,988q0,49.79,33,82.8a108.34,108.34,0,0,0,29.75,21.25,17.93,17.93,0,0,1,29.76,4.4,17.92,17.92,0,0,1,32.6,0,17.88,17.88,0,0,1,32.57,0,17.82,17.82,0,0,1,25.39-8q20.52-11.88,35.8-33.54l-47.09-22.12q-22.52,21.93-53.82,21.93-26.19,0-43.11-14T2787.56,1003h179.51ZM2790,959q9.42-20.67,20.51-28.88c11.74-8.7,25.42-13.1,41-13.1q21.54,0,37.81,11.67A56.25,56.25,0,0,1,2911.21,959Z"/><path class="a" d="M1492.69,436.14a46.71,46.71,0,0,0-18.4-17.47,55,55,0,0,0-26.46-6.34,53.64,53.64,0,0,0-24.29,5.4l-.19.1a40.39,40.39,0,0,0-4.08,2.33v-139h-55.89V419.54a31,31,0,0,0-3.23-1.81,19,19,0,0,0-1.78-.81,53.74,53.74,0,0,0-22.54-4.59,54.81,54.81,0,0,0-26.43,6.34,46.82,46.82,0,0,0-25,41.79q0,19,13.58,33.21t37.55,14.2a55.75,55.75,0,0,0,23.71-4.78,44.14,44.14,0,0,0,4.17-2.24V1094.7a14.44,14.44,0,0,1,1,1.78,17.88,17.88,0,0,1,32.57,0,17.84,17.84,0,0,1,22.35-9.44V500.24a41.23,41.23,0,0,0,4.21,2.36c7.11,3.53,15.36,5.27,24.71,5.27q24,0,37.55-14.2t13.55-33.21A46.75,46.75,0,0,0,1492.69,436.14Zm-101.36,397a19.86,19.86,0,1,1,19.86-19.86A19.86,19.86,0,0,1,1391.33,833.11Z"/><path class="c" d="M1502.25,247.84a32.83,32.83,0,0,1-32.83,32.83c-6.15,0-18.67-1.8-32.58-4.9,8.59,10,15.51,19.16,18.39,24.16a32.83,32.83,0,1,1-56.87,32.83,113.13,113.13,0,0,1-6.66-15,124.46,124.46,0,0,1-6.66,14.49,32.83,32.83,0,1,1-56.87-32.83c2.88-5,10-14.12,18.83-23.92-12.76,3-24.06,4.9-29.81,5.14a32.83,32.83,0,0,1-2.91-65.6c6-.26,18.11.91,31.69,3.26-8-9.33-14.29-17.82-17-22.56a32.84,32.84,0,1,1,56.89-32.83,126.77,126.77,0,0,1,7.46,17.16,135.13,135.13,0,0,1,7.53-16.65,32.83,32.83,0,1,1,56.87,32.83c-2.74,4.77-9.26,13.21-17.49,22.43,12.54-2.37,23.57-3.69,29.22-3.69A32.84,32.84,0,0,1,1502.25,247.84Z"/><circle class="d" cx="1394.2" cy="247.83" r="36.68"/><path class="a" d="M2199.38,531.34a88.82,88.82,0,0,1,6.09,8.66,40.37,40.37,0,0,1,4.63,9.92l-4.53-.43a22.6,22.6,0,0,1,7.61-8.94,38.11,38.11,0,0,1,4.87-3,37,37,0,0,1,5.33-2.26,3.2,3.2,0,1,1,2,6.08l-.2.06-.18,0a32.16,32.16,0,0,0-4.47,1.55,33.47,33.47,0,0,0-4.26,2.18,17.45,17.45,0,0,0-6.33,6.36l-.07.13a2.41,2.41,0,0,1-3.25,1,2.44,2.44,0,0,1-1.21-1.56,35.6,35.6,0,0,0-3.81-8.78,87.43,87.43,0,0,0-5.5-8.37l-.08-.1a2.12,2.12,0,0,1,3.36-2.58Z"/><path class="e" d="M2271.42,602.25a302.64,302.64,0,0,1-49.58-59.85c-.35-.52-.66-1-.92-1.45-1-1.67-1.51-2.57-1.51-2.57s1.06-1,3.11-2.64a301.74,301.74,0,0,1,64.09-40.09c67.72-31.2,173.47-46.64,254,94.34C2420.93,699.12,2326.13,653,2271.42,602.25Z"/><path class="f" d="M2251.88,532.86a188.48,188.48,0,0,0-30,9.54c-.35-.52-.66-1-.92-1.45-1-1.67-1.51-2.57-1.51-2.57s1.06-1,3.11-2.64c20.27-7.63,40.72-11.21,61.14-12.7,5.38-.32,10.76-.78,16.1-.62l8,.05,4,0,4,.31c5.32.46,10.64.77,15.95,1.32l15.78,2.45c1.29.24,2.62.38,3.94.66l3.88.91,7.77,1.86,7.77,1.88c2.6.57,5.11,1.61,7.65,2.39l15.24,5c5,2,9.92,4.22,14.88,6.31l7.43,3.21a78.31,78.31,0,0,1,7.24,3.69l14.38,7.75,3.58,1.92,3.46,2.27,6.92,4.52,13.81,9.08-14-8.7-7-4.38-3.5-2.15-3.62-1.84-14.48-7.35c-2.44-1.18-4.79-2.61-7.29-3.52l-7.46-3c-5-1.94-9.92-4-14.92-5.88L2378,536.58c-2.55-.69-5-1.67-7.65-2.17l-7.78-1.66-7.76-1.66-3.86-.85c-1.32-.21-2.63-.32-3.93-.51l-15.71-2.06c-5.28-.43-10.57-.58-15.85-.93l-4-.19-4,.09-8,.14c-5.3-.06-10.62.54-15.92,1A239.29,239.29,0,0,0,2251.88,532.86Z"/><path class="g" d="M2144.76,545.17a206.61,206.61,0,0,0,52.07-10.08l1.12-.38,1.91-.7s-.15-1-.5-2.73a206.13,206.13,0,0,0-16.44-48.91c-22.19-45.79-71.27-99.74-174.84-60.29C2024,531.49,2093.91,548.25,2144.76,545.17Z"/><path class="f" d="M2185.12,517a128.22,128.22,0,0,1,11.71,18.05l1.12-.38,1.91-.7s-.15-1-.5-2.73c-7.38-12.81-16.62-23.55-26.74-33.19-2.7-2.49-5.34-5.06-8.22-7.29l-4.26-3.46-2.12-1.72-2.24-1.56c-3-2.07-5.94-4.21-9-6.21l-9.38-5.55c-.79-.44-1.55-.94-2.37-1.36l-2.43-1.2-4.91-2.39L2122.8,465c-1.62-.82-3.39-1.37-5.08-2.05L2107.51,459c-3.5-1.12-7.06-2.07-10.58-3.12l-5.31-1.53c-1.73-.57-3.6-.78-5.41-1.19L2075.26,451l-2.72-.55-2.8-.3-5.61-.61-11.22-1.2,11.14,1.46,5.57.71,2.77.39,2.71.59,10.82,2.4c1.8.44,3.66.7,5.37,1.3l5.24,1.64c3.47,1.14,7,2.18,10.42,3.36l10.06,4.17c1.64.75,3.38,1.31,5,2.18l4.82,2.49,4.81,2.49,2.4,1.22c.79.46,1.53,1,2.3,1.43l9.18,5.72c3,2.06,5.82,4.27,8.76,6.38l2.17,1.61,2.06,1.77,4.13,3.52c2.82,2.27,5.37,4.89,8,7.42A163.11,163.11,0,0,1,2185.12,517Z"/></svg>